<svg width="148" height="43" viewBox="0 0 148 43" fill="none" xmlns="http://www.w3.org/2000/svg">
<path d="M56.708 10.24C60.428 10.24 63.272 11.272 65.24 13.336C67.232 15.4 68.228 18.328 68.228 22.12C68.228 25.912 67.232 28.84 65.24 30.904C63.272 32.968 60.428 34 56.708 34H46.628V10.24H56.708ZM56.096 29.32C58.112 29.32 59.576 28.72 60.488 27.52C61.424 26.296 61.892 24.496 61.892 22.12C61.892 19.744 61.424 17.956 60.488 16.756C59.576 15.532 58.112 14.92 56.096 14.92H52.82V29.32H56.096ZM72.0555 34V16H77.4555L77.7075 19.888C78.1635 18.544 78.8355 17.5 79.7235 16.756C80.6355 16.012 81.7875 15.64 83.1795 15.64C83.6355 15.64 84.0195 15.676 84.3315 15.748C84.6675 15.82 84.9315 15.916 85.1235 16.036L84.5115 21.076C84.2715 20.98 83.9595 20.908 83.5755 20.86C83.2155 20.788 82.7715 20.752 82.2435 20.752C81.5235 20.752 80.8515 20.908 80.2275 21.22C79.6035 21.532 79.0995 22 78.7155 22.624C78.3555 23.224 78.1755 23.992 78.1755 24.928V34H72.0555ZM90.6743 13.912C89.4263 13.912 88.5143 13.684 87.9383 13.228C87.3863 12.748 87.1103 12.004 87.1103 10.996C87.1103 9.964 87.3863 9.22 87.9383 8.764C88.5143 8.284 89.4263 8.044 90.6743 8.044C91.8983 8.044 92.7983 8.284 93.3743 8.764C93.9503 9.22 94.2383 9.964 94.2383 10.996C94.2383 12.004 93.9503 12.748 93.3743 13.228C92.7983 13.684 91.8983 13.912 90.6743 13.912ZM93.7343 16V34H87.6143V16H93.7343ZM109.881 16H116.217L109.737 34H102.429L95.9488 16H102.393L106.101 29.716L109.881 16ZM121.511 13.912C120.263 13.912 119.351 13.684 118.775 13.228C118.223 12.748 117.947 12.004 117.947 10.996C117.947 9.964 118.223 9.22 118.775 8.764C119.351 8.284 120.263 8.044 121.511 8.044C122.735 8.044 123.635 8.284 124.211 8.764C124.787 9.22 125.075 9.964 125.075 10.996C125.075 12.004 124.787 12.748 124.211 13.228C123.635 13.684 122.735 13.912 121.511 13.912ZM124.571 16V34H118.451V16H124.571ZM137.549 15.64C139.373 15.64 140.885 15.904 142.085 16.432C143.309 16.936 144.257 17.62 144.929 18.484C145.625 19.324 146.057 20.236 146.225 21.22L140.573 23.092C140.405 22.06 140.093 21.292 139.637 20.788C139.205 20.26 138.569 19.996 137.729 19.996C136.961 19.996 136.313 20.176 135.785 20.536C135.281 20.872 134.897 21.424 134.633 22.192C134.369 22.936 134.237 23.896 134.237 25.072C134.237 26.248 134.381 27.208 134.669 27.952C134.957 28.672 135.365 29.2 135.893 29.536C136.421 29.848 137.045 30.004 137.765 30.004C138.365 30.004 138.857 29.896 139.241 29.68C139.649 29.44 139.985 29.104 140.249 28.672C140.513 28.24 140.681 27.712 140.753 27.088L146.261 28.852C146.093 29.908 145.637 30.856 144.893 31.696C144.173 32.512 143.213 33.16 142.013 33.64C140.813 34.12 139.409 34.36 137.801 34.36C135.833 34.36 134.117 34 132.653 33.28C131.189 32.536 130.061 31.468 129.269 30.076C128.477 28.66 128.081 26.968 128.081 25C128.081 23.032 128.477 21.352 129.269 19.96C130.061 18.544 131.165 17.476 132.581 16.756C134.021 16.012 135.677 15.64 137.549 15.64Z" fill="#0A1851"/>
<path d="M14.9043 26.2915C14.9043 27.7227 16.0686 28.8869 17.4996 28.8869C18.9306 28.8869 20.0949 27.7226 20.0949 26.2915C20.0949 24.8605 18.9306 23.6963 17.4996 23.6963C16.0686 23.6963 14.9043 24.8606 14.9043 26.2915Z" fill="#4285F4"/>
<path d="M32.6553 16.2462C32.6553 16.8938 33.1803 17.4188 33.8278 17.4188C34.4754 17.4188 35.0004 16.8938 35.0004 16.2462V10.7705L32.6553 11.6725V16.2462Z" fill="#3D72FC"/>
<path d="M6.44651 9.2315C6.44651 7.89031 7.19172 6.68466 8.39143 6.08501C11.2045 4.67839 14.3544 3.93481 17.5 3.93481C20.6456 3.93481 23.7955 4.67839 26.609 6.08516C27.8083 6.68466 28.5535 7.89031 28.5535 9.2315V10.7372L34.2484 8.54687C34.7012 8.37263 35 7.9376 35 7.45247C35 6.96725 34.7012 6.53223 34.2484 6.35806L17.921 0.0782109C17.6499 -0.0260703 17.3501 -0.0260703 17.079 0.0782109L0.751622 6.35798C0.298773 6.53215 0 6.96718 0 7.45239C0 7.93752 0.298773 8.37255 0.751622 8.54679L6.44651 10.7371V9.2315Z" fill="#3D72FC"/>
<path d="M25.3112 18.0071C27.2455 19.8316 28.5411 22.3259 28.8269 25.1192H22.2986C22.3905 25.4953 22.4403 25.8878 22.4403 26.2918C22.4403 26.6959 22.3904 27.0883 22.2986 27.4644H28.8272C28.2797 32.8169 24.025 37.0716 18.6725 37.6191V31.0906C18.2964 31.1825 17.9039 31.2324 17.4999 31.2324C17.0959 31.2324 16.7034 31.1825 16.3274 31.0906V37.6191C10.9749 37.0716 6.7202 32.8169 6.17261 27.4644H12.7012C12.6093 27.0883 12.5594 26.6958 12.5594 26.2918C12.5594 25.8878 12.6093 25.4954 12.7011 25.1192H6.17284C6.45872 22.3259 7.75418 19.8316 9.68854 18.0071C8.80864 17.9385 8.01887 17.5453 7.43899 16.9469C5.16122 19.3979 3.76758 22.6819 3.76758 26.2919C3.76773 33.876 9.91587 40.024 17.4999 40.024C25.084 40.024 31.2321 33.8759 31.2321 26.2918C31.2321 22.6818 29.8385 19.3979 27.5607 16.9468C26.9808 17.5453 26.1911 17.9385 25.3112 18.0071Z" fill="#3D72FC"/>
<path d="M26.2087 14.5012V9.23156C26.2087 8.78739 25.9578 8.38136 25.5605 8.18281C23.071 6.938 20.2839 6.28003 17.5003 6.28003C14.7168 6.28003 11.9296 6.938 9.44019 8.18281C9.04292 8.38136 8.79199 8.78739 8.79199 9.23156V14.5012C8.79199 15.1488 9.31699 15.6738 9.96457 15.6738H25.0362C25.6837 15.6738 26.2087 15.1489 26.2087 14.5012Z" fill="#3D72FC"/>
</svg>
