<svg xmlns="http://www.w3.org/2000/svg" width="60" height="60" viewBox="0 0 60 60" fill="none"><path d="M10.5528 46.4C9.71276 46.4 8.90527 46.6096 8.18888 47.0033C4.4151 42.1657 2.34373 36.1562 2.34373 29.9998C2.34373 14.75 14.75 2.34373 29.9998 2.34373C31.8537 2.34373 33.7067 2.52821 35.5076 2.89213C36.1411 3.0203 36.76 2.61015 36.8882 1.97569C37.0163 1.34124 36.6062 0.723261 35.9717 0.594631C34.0185 0.200041 32.0094 0 29.9998 0C21.9867 0 14.4529 3.12055 8.78671 8.78671C3.12055 14.4529 0 21.9867 0 29.9998C0 36.7403 2.2888 43.3183 6.4558 48.5917C5.9193 49.3933 5.63091 50.3353 5.63091 51.3218C5.63091 52.6365 6.14315 53.8724 7.07286 54.8017C8.00211 55.7314 9.23806 56.2436 10.5528 56.2436C11.8674 56.2436 13.1034 55.7314 14.0331 54.8017C14.9628 53.8724 15.4746 52.636 15.4746 51.3214C15.4746 50.0071 14.9628 48.7707 14.0331 47.8415C13.1034 46.9117 11.8674 46.4 10.5528 46.4ZM12.3756 53.1446C11.889 53.6317 11.2412 53.8999 10.5528 53.8999C9.86428 53.8999 9.21701 53.6317 8.72995 53.1446C8.24289 52.6576 7.97464 52.0103 7.97464 51.3218C7.97464 50.6329 8.24289 49.9856 8.72995 49.4986C9.21655 49.0115 9.86428 48.7437 10.5528 48.7437C11.2412 48.7437 11.8885 49.0119 12.3756 49.4986C12.8626 49.9856 13.1309 50.6329 13.1309 51.3218C13.1309 52.0103 12.8626 52.6576 12.3756 53.1446Z" fill="#3D72FC"></path><path d="M53.5435 11.4064C54.8174 9.49526 54.6128 6.88236 52.9278 5.19735C51.9981 4.26809 50.7621 3.75586 49.4474 3.75586C48.1327 3.75586 46.8968 4.26809 45.9671 5.19735C45.0373 6.12706 44.5256 7.36301 44.5256 8.6777C44.5256 9.99239 45.0373 11.2283 45.9671 12.1581C46.8968 13.0878 48.1327 13.5995 49.4474 13.5995C50.2874 13.5995 51.0949 13.3899 51.8113 12.9962C55.5851 17.8343 57.6564 23.8433 57.6564 29.9997C57.6564 45.2496 45.2502 57.6558 30.0004 57.6558C28.1648 57.6558 26.3291 57.475 24.5452 57.1179C23.9108 56.9911 23.2933 57.4026 23.166 58.0371C23.0392 58.672 23.4507 59.2891 24.0852 59.4163C26.0201 59.8031 28.0105 59.9995 30.0004 59.9995C38.0135 59.9995 45.5473 56.879 51.2134 51.2128C56.8796 45.5466 60.0002 38.0128 60.0002 29.9997C60.0002 23.2587 57.7109 16.6803 53.5435 11.4064ZM47.6246 10.501C47.1376 10.0139 46.8693 9.36663 46.8693 8.6777C46.8693 7.98923 47.1376 7.34195 47.6246 6.8549C48.1112 6.36784 48.7589 6.09959 49.4474 6.09959C50.1359 6.09959 50.7836 6.36784 51.2707 6.8549C52.2755 7.86014 52.2755 9.49572 51.2707 10.501C50.7836 10.9876 50.1359 11.2558 49.4474 11.2558C48.7585 11.2558 48.1112 10.9876 47.6246 10.501Z" fill="#3D72FC"></path><path d="M25.1639 50.156C25.1639 50.8032 25.689 51.3278 26.3358 51.3278H33.6632C34.3105 51.3278 34.8351 50.8032 34.8351 50.156V47.8841C36.3759 47.4694 37.8489 46.8587 39.2332 46.0613L40.8372 47.6653C41.0569 47.885 41.3549 48.0086 41.6662 48.0086C41.9766 48.0086 42.275 47.885 42.4948 47.6648L47.6739 42.4821C48.1312 42.0243 48.1312 41.2823 47.6739 40.825L46.0717 39.2228C46.8691 37.8385 47.4798 36.3655 47.8945 34.8246H50.1577C50.8049 34.8246 51.3295 34.3001 51.3295 33.6528V26.3254C51.3295 25.6781 50.8049 25.1535 50.1577 25.1535H47.894C47.4793 23.6132 46.8691 22.1401 46.0717 20.7558L47.6652 19.1624C47.8849 18.9426 48.0085 18.6442 48.0085 18.3334C48.008 18.0225 47.8844 17.7241 47.6647 17.5044L42.4815 12.3253C42.0242 11.868 41.2822 11.868 40.8244 12.3257L39.2332 13.9174C37.8489 13.1199 36.3759 12.5093 34.8351 12.0945V9.84374C34.8351 9.19647 34.3105 8.67188 33.6632 8.67188H26.3358C25.689 8.67188 25.1639 9.19647 25.1639 9.84374V12.095C23.6236 12.5093 22.1505 13.1199 20.7662 13.9174L19.1746 12.3257C18.7173 11.8684 17.9753 11.868 17.5175 12.3253L12.3348 17.5048C12.1146 17.7245 11.991 18.0225 11.991 18.3334C11.991 18.6442 12.1146 18.9426 12.3343 19.1624L13.9278 20.7558C13.1303 22.1401 12.5197 23.6127 12.105 25.1535H9.84591C9.19864 25.1535 8.67404 25.6781 8.67404 26.3249L8.66992 33.6523C8.66947 33.9631 8.79306 34.2616 9.01279 34.4813C9.23251 34.701 9.53051 34.8246 9.84179 34.8246H12.105C12.5197 36.3655 13.1303 37.8385 13.9278 39.2228L12.3256 40.825C11.8683 41.2823 11.8678 42.0243 12.3256 42.4821L17.5047 47.6648C17.7244 47.8845 18.0224 48.0086 18.3332 48.0086H18.3337C18.6445 48.0086 18.9425 47.885 19.1622 47.6653L20.7658 46.0613C22.1505 46.8587 23.6236 47.4694 25.1639 47.8841V50.156ZM21.2254 43.5967C20.7617 43.2969 20.1515 43.3619 19.7605 43.7523L18.3337 45.1792L14.8112 41.654L16.2367 40.228C16.6272 39.8376 16.6922 39.2274 16.3923 38.7637C15.3299 37.1194 14.5828 35.3172 14.1727 33.4065C14.0564 32.8668 13.5794 32.4809 13.0269 32.4809H11.0141L11.0169 27.4973H13.0269C13.5794 27.4973 14.0564 27.1118 14.1727 26.5717C14.5828 24.6614 15.3299 22.8592 16.3923 21.215C16.6922 20.7513 16.6272 20.1411 16.2367 19.7506L14.8204 18.3338L18.3456 14.8114L19.7605 16.2268C20.1515 16.6172 20.7612 16.6818 21.2254 16.3824C22.8692 15.3199 24.6714 14.5729 26.5821 14.1627C27.1218 14.0464 27.5077 13.569 27.5077 13.0169V11.0156H32.4913V13.0165C32.4913 13.569 32.8768 14.0464 33.4169 14.1623C35.3271 14.5729 37.1298 15.3195 38.7736 16.3819C39.2373 16.6818 39.8475 16.6172 40.238 16.2263L41.6534 14.8114L45.1786 18.3338L43.7623 19.7501C43.3714 20.1411 43.3068 20.7513 43.6067 21.215C44.6691 22.8592 45.4157 24.6614 45.8263 26.5717C45.9422 27.1118 46.4196 27.4973 46.9721 27.4973H48.9858V32.4809H46.9721C46.4196 32.4809 45.9426 32.8668 45.8263 33.4065C45.4162 35.3167 44.6691 37.1194 43.6067 38.7632C43.3068 39.2274 43.3718 39.8376 43.7623 40.228L45.1878 41.6535L41.6653 45.1787L40.2385 43.7523C39.8475 43.3614 39.2373 43.2969 38.7736 43.5967C37.1293 44.6592 35.3271 45.4058 33.4169 45.8164C32.8768 45.9327 32.4913 46.4096 32.4913 46.9622V48.9841H27.5077V46.9622C27.5077 46.4101 27.1218 45.9327 26.5821 45.8164C24.6719 45.4062 22.8697 44.6592 21.2254 43.5967Z" fill="#3D72FC"></path><path d="M39.6834 30C39.6834 24.6606 35.3397 20.317 30.0004 20.317C24.6611 20.317 20.3174 24.6606 20.3174 30C20.3174 35.3393 24.6611 39.683 30.0004 39.683C35.3397 39.683 39.6834 35.3393 39.6834 30ZM22.6611 30C22.6611 25.9529 25.9533 22.6607 30.0004 22.6607C34.0474 22.6607 37.3397 25.9534 37.3397 30C37.3397 34.0466 34.0474 37.3392 30.0004 37.3392C25.9533 37.3392 22.6611 34.047 22.6611 30Z" fill="#3D72FC"></path><path d="M40.7895 4.43104C41.0981 4.43104 41.4002 4.30562 41.6181 4.08772C41.836 3.86846 41.9614 3.56633 41.9614 3.2578C41.9614 2.9511 41.8364 2.64853 41.6181 2.42926C41.4002 2.21136 41.0981 2.08594 40.7895 2.08594C40.4801 2.08594 40.1793 2.21136 39.9615 2.42926C39.7431 2.64853 39.6177 2.94973 39.6177 3.2578C39.6177 3.56725 39.7431 3.86846 39.9615 4.08772C40.1793 4.30562 40.4801 4.43104 40.7895 4.43104Z" fill="#3D72FC"></path><path d="M19.2612 55.5887C18.9531 55.5887 18.6506 55.7142 18.4327 55.9321C18.2148 56.15 18.0894 56.4525 18.0894 56.7606C18.0894 57.0701 18.2148 57.3713 18.4327 57.5892C18.6506 57.8071 18.9531 57.9325 19.2612 57.9325C19.5693 57.9325 19.8719 57.8071 20.0898 57.5892C20.3077 57.3713 20.4331 57.0687 20.4331 56.7606C20.4331 56.4525 20.3077 56.15 20.0898 55.9321C19.8719 55.7142 19.5693 55.5887 19.2612 55.5887Z" fill="#3D72FC"></path></svg>