<svg xmlns="http://www.w3.org/2000/svg" width="70" height="70" viewBox="0 0 70 70" fill="none"><circle opacity="0.3" cx="35" cy="35" r="35" fill="#3D72FC"></circle><path d="M46.3124 47.9953H42.8797V27.9713C42.8797 27.7572 42.7605 27.5615 42.5706 27.4631C42.3807 27.3648 42.1515 27.3807 41.9768 27.5044L39.7779 29.0615L39.478 28.1383L44.583 24.4294C44.7835 24.2835 44.8673 24.0254 44.7908 23.7896C44.714 23.5539 44.4944 23.3944 44.2466 23.3944H37.936L35.9865 17.3935C35.9091 17.1586 35.6902 17 35.443 17C35.1958 17 34.9768 17.1586 34.8991 17.3935L32.9487 23.3944H26.6381C26.3901 23.3944 26.1707 23.5539 26.0939 23.7896C26.0174 24.0254 26.1012 24.2835 26.3017 24.4294L31.4067 28.1383L29.4571 34.1389C29.3799 34.3752 29.4637 34.6335 29.6642 34.7797C29.8651 34.9254 30.1368 34.9254 30.3375 34.7792L35.4423 31.0703L36.186 31.6098L28.2463 37.2304C28.0948 37.3376 28.0048 37.5118 28.0048 37.6972V47.9953H24.5721C24.2563 47.9953 24 48.2513 24 48.5674V51.428C24 51.7437 24.2563 52.0001 24.5721 52.0001H46.3124C46.6284 52.0001 46.8845 51.7437 46.8845 51.428V48.5674C46.8845 48.2513 46.6284 47.9953 46.3124 47.9953ZM35.4423 29.7907C35.3214 29.7907 35.2038 29.8287 35.1059 29.8999L31.0898 32.8178L32.6238 28.0959C32.7002 27.8603 32.6164 27.602 32.4159 27.4565L28.399 24.5386H33.364C33.6117 24.5386 33.8314 24.3791 33.9078 24.1434L35.4423 19.4216L36.9769 24.1434C37.0533 24.3791 37.273 24.5386 37.5206 24.5386H42.4857L38.469 27.4565C38.2681 27.602 38.1843 27.8603 38.2609 28.0959L39.795 32.8178L35.7786 29.8999C35.6809 29.8287 35.5635 29.7907 35.4423 29.7907ZM29.149 37.993L37.1631 32.3194L40.5472 34.7792C40.7477 34.9251 41.0193 34.9251 41.22 34.7797C41.4205 34.6337 41.5042 34.3754 41.4278 34.1398L40.1481 30.2023L41.7355 29.077V47.9953H29.149V37.993ZM45.7403 50.8558H25.1442V49.1395H45.7403V50.8558Z" fill="#3D72FC"></path></svg>