<svg xmlns="http://www.w3.org/2000/svg" width="55" height="55" viewBox="0 0 55 55" fill="none"><path d="M27.5 24.75C24.4671 24.75 22 27.2171 22 30.25C22 33.2829 24.4671 35.75 27.5 35.75C30.5329 35.75 33 33.2829 33 30.25C33 27.2171 30.5329 24.75 27.5 24.75ZM27.5 33.9167C25.4782 33.9167 23.8333 32.2722 23.8333 30.25C23.8333 28.2278 25.4782 26.5833 27.5 26.5833C29.5218 26.5833 31.1667 28.2278 31.1667 30.25C31.1667 32.2722 29.5218 33.9167 27.5 33.9167Z" fill="#3D72FC"></path><path d="M27.5 0C12.3365 0 0 12.3365 0 27.5C0 42.6635 12.3365 55 27.5 55C42.6635 55 55 42.6635 55 27.5C55 12.3365 42.6635 0 27.5 0ZM27.5 53.1667C13.3471 53.1667 1.83333 41.6529 1.83333 27.5C1.83333 13.3471 13.3471 1.83333 27.5 1.83333C41.6529 1.83333 53.1667 13.3471 53.1667 27.5C53.1667 41.6529 41.6529 53.1667 27.5 53.1667Z" fill="#3D72FC"></path><path d="M27.5 5.5C15.3694 5.5 5.5 15.3694 5.5 27.5C5.5 39.6306 15.3694 49.5 27.5 49.5C39.6306 49.5 49.5 39.6306 49.5 27.5C49.5 15.3694 39.6306 5.5 27.5 5.5ZM27.5 7.33333C36.0691 7.33333 43.402 12.7079 46.3178 20.2612L39.4499 22.5505C37.0942 23.3356 34.5474 23.2129 32.2767 22.2032C29.2412 20.8532 25.7584 20.8532 22.7238 22.2032L22.3765 22.3572C20.3122 23.2757 17.9718 23.4609 15.7866 22.8782L8.44158 20.9195C11.1765 13.0219 18.6841 7.33333 27.5 7.33333ZM7.33333 27.5C7.33333 27.3132 7.34239 27.1286 7.34754 26.9431L7.98417 27.1553C17.022 30.1678 23.4136 38.064 24.5505 47.4488C14.824 46.017 7.33333 37.6179 7.33333 27.5ZM27.5 47.6667C27.136 47.6667 26.7745 47.6558 26.4151 47.6366C25.3319 37.3698 18.4087 28.6979 8.56419 25.4169L7.48642 25.0577C7.58461 24.2487 7.7291 23.4541 7.92046 22.6773L15.3138 24.6489C16.3047 24.9131 17.3221 25.0446 18.3386 25.0446C19.9768 25.0446 21.611 24.7044 23.1206 24.0331L23.4679 23.8791C26.0299 22.7386 28.9688 22.7395 31.5344 23.88C34.2221 25.0732 37.2389 25.22 40.0297 24.289L46.8977 21.9997C47.1791 22.9905 47.3864 24.0116 47.5134 25.0577L46.4356 25.4169C36.5909 28.6979 29.6679 37.3698 28.5846 47.6366C28.2255 47.6558 27.864 47.6667 27.5 47.6667ZM30.4496 47.4488C31.5865 38.064 37.978 30.1678 47.0159 27.1553L47.6526 26.9431C47.6576 27.1286 47.6668 27.3132 47.6668 27.5C47.6667 37.6179 40.176 46.017 30.4496 47.4488Z" fill="#3D72FC"></path></svg>