<svg xmlns="http://www.w3.org/2000/svg" width="56" height="56" viewBox="0 0 56 56" fill="none"><path d="M33.7297 22.4029L25.4616 30.2123L21.4935 26.13C21.0536 25.6771 20.3293 25.6668 19.8768 26.1067C19.4239 26.547 19.4136 27.2709 19.8535 27.7238L24.6127 32.6093C25.0549 33.0541 25.7694 33.0694 26.2299 32.6434L35.324 24.0658C35.5448 23.8575 35.6738 23.5699 35.6824 23.2666C35.6909 22.9633 35.5784 22.669 35.3697 22.4486C34.9271 21.9886 34.1974 21.9684 33.7297 22.4029Z" fill="#3D72FC"></path><path d="M27.5948 10.3843C18.1454 10.3843 10.4619 18.0678 10.4619 27.5171C10.4619 36.9669 18.1454 44.6504 27.5948 44.6504C37.0446 44.6504 44.7281 36.9669 44.7281 27.5171C44.7281 18.0678 37.0446 10.3843 27.5948 10.3843ZM27.5948 42.3568C19.4069 42.3568 12.7555 35.6938 12.7555 27.5171C12.7555 19.3404 19.4069 12.6779 27.5948 12.6779C35.7907 12.6779 42.4345 19.3216 42.4345 27.5171C42.4345 35.7126 35.7907 42.3568 27.5948 42.3568Z" fill="#3D72FC"></path><path d="M51.1726 21.2099L51.5512 14.4093C51.5776 13.9529 51.3294 13.5242 50.9204 13.3199L44.8653 10.2581L41.8035 4.20292C41.5952 3.79751 41.1691 3.55068 40.714 3.57218L33.9018 3.93951L28.2252 0.189153C27.8426 -0.063051 27.3467 -0.063051 26.9637 0.189153L21.2871 3.93951L14.487 3.56098C14.0301 3.5341 13.6018 3.78228 13.3976 4.19172L10.3353 10.2469L4.28059 13.3087C3.87473 13.5165 3.62835 13.9426 3.64985 14.3981L4.02793 21.1987L0.27802 26.8753C0.0258161 27.2579 0.0258161 27.7538 0.27802 28.1368L4.01673 33.8246L3.6382 40.6251C3.61177 41.0816 3.8595 41.5103 4.26894 41.7146L10.3241 44.7764L13.3859 50.8315C13.5938 51.2374 14.0198 51.4838 14.4754 51.4623L21.2759 51.0838L26.9525 54.8337C27.3329 55.0939 27.8337 55.0939 28.214 54.8337L33.8906 51.0838L40.6912 51.4623C41.1476 51.4887 41.5759 51.2405 41.7806 50.8315L44.8425 44.7764L50.8976 41.7146C51.303 41.5063 51.5498 41.0807 51.5283 40.6251L51.1498 33.8246L54.8997 28.148C55.1519 27.7654 55.1519 27.2691 54.8997 26.8865L51.1726 21.2099ZM49.0394 32.8843C48.8997 33.0895 48.8347 33.3363 48.8562 33.584L49.2115 40.0172L43.4892 42.9071C43.271 43.0164 43.0941 43.1938 42.9847 43.4119L40.0945 49.1342L33.6613 48.779C33.4149 48.77 33.1716 48.8336 32.9615 48.9622L27.5945 52.506L22.2278 48.9622C22.0415 48.8363 21.822 48.7682 21.5971 48.7673H21.5398L15.1061 49.123L12.2163 43.4003C12.107 43.1821 11.93 43.0052 11.7114 42.8959L5.97748 40.0172L6.33316 33.584C6.34212 33.3376 6.27806 33.0944 6.1495 32.8843L2.60609 27.5172L6.1495 22.1502C6.28971 21.9454 6.35466 21.6982 6.33316 21.4509L5.97748 15.0172L11.7002 12.1274C11.9184 12.0181 12.0953 11.8412 12.2046 11.623L15.0945 5.90025L21.5281 6.25594C21.7741 6.26445 22.0173 6.20084 22.2278 6.07227L27.5945 2.52887L32.9615 6.07227C33.1667 6.21248 33.414 6.27744 33.6613 6.25594L40.0945 5.90025L42.9847 11.623C43.0941 11.8412 43.271 12.0181 43.4892 12.1274L49.2115 15.0172L48.8562 21.4509C48.8473 21.6968 48.9113 21.9401 49.0394 22.1502L52.5833 27.5172L49.0394 32.8843Z" fill="#3D72FC"></path></svg>