<svg xmlns="http://www.w3.org/2000/svg" width="60" height="60" viewBox="0 0 60 60" fill="none"><g clip-path="url(#clip0_1_2768)"><path d="M47.5134 47.835C47.003 47.4448 46.2735 47.5427 45.8835 48.0528C45.4935 48.563 45.5911 49.2927 46.1013 49.6826L48.0882 51.2013C48.2983 51.3618 48.5467 51.4402 48.7938 51.4402C49.1118 51.4402 49.4276 51.3102 49.656 51.058L53.4539 46.8646C53.8849 46.3886 53.8486 45.6533 53.3726 45.2223C52.8967 44.7913 52.1613 44.8276 51.7303 45.3035L48.6505 48.7042L47.5134 47.835Z" fill="#3D72FC"></path><path d="M59.8585 41.6288C59.8453 41.0359 59.388 40.5483 58.7974 40.4966C56.0315 40.2549 52.6278 38.3969 50.1257 35.7635C49.9062 35.5326 49.6017 35.4018 49.2831 35.4016C49.283 35.4016 49.2829 35.4016 49.2828 35.4016C48.9644 35.4016 48.6599 35.5322 48.4404 35.7629C47.3173 36.9434 46.0137 37.9674 44.6684 38.7605C42.3079 36.1253 39.4025 34.1838 35.9973 32.9617C35.9677 32.9497 35.9377 32.939 35.907 32.9295C35.6418 32.8355 35.3734 32.7459 35.1021 32.6606C37.9819 29.7884 39.919 26.0141 39.919 22.6281V20.8014C41.2803 20.2087 42.235 18.8499 42.235 17.2718C42.235 15.6325 41.2032 14.2304 39.7553 13.6787C39.1577 7.87664 35.0699 2.99932 29.4549 1.38571C29.289 0.595422 28.5868 0 27.748 0H23.5347C22.7257 0 22.0456 0.554379 21.8494 1.30281C19.0874 2.03939 16.5645 3.6116 14.673 5.79749C12.7532 8.01617 11.5593 10.7869 11.2561 13.6793C9.80745 14.2313 8.77532 15.6331 8.77532 17.2719C8.77532 18.8506 9.73141 20.2097 11.0946 20.8021V22.6283C11.0946 26.011 13.032 29.7868 15.9117 32.6609C15.6483 32.7437 15.3875 32.8303 15.1297 32.9212C15.079 32.9357 15.0298 32.9535 14.9817 32.9745C11.1704 34.3494 7.98839 36.6253 5.49648 39.7682C3.09991 42.791 1.39619 46.5239 0.432774 50.864C0.0898921 52.4151 -0.167996 54.3642 0.889602 55.6811C1.92267 56.9674 3.77114 57.1323 5.26626 57.1323H12.8721C13.5143 57.1323 14.0348 56.6116 14.0348 55.9696C14.0348 55.3275 13.5143 54.8069 12.8721 54.8069H5.26626C3.87532 54.8069 3.01282 54.6111 2.70273 54.2249C2.37426 53.8159 2.3745 52.854 2.70308 51.3669C3.91148 45.924 6.86615 39.2635 13.9851 35.9006C13.7661 39.8285 15.8945 42.396 17.2473 44.0256C17.4543 44.2751 17.7562 44.4267 18.08 44.444C18.4036 44.4619 18.7201 44.3426 18.9525 44.1166L25.5053 37.744L32.0612 44.1168C32.2787 44.3282 32.5697 44.4458 32.8716 44.4458C32.8924 44.4458 32.9132 44.4452 32.9343 44.444C33.2581 44.4266 33.5601 44.2746 33.767 44.0247C35.118 42.3938 37.2432 39.8248 37.0262 35.9051C39.0915 36.8848 40.9163 38.195 42.4855 39.8273C41.5484 40.1899 40.6271 40.4216 39.768 40.4967C39.1778 40.5483 38.7207 41.0355 38.7069 41.6279C38.6096 45.785 39.3024 48.7632 41.1769 52.2492C41.1928 52.2787 41.8262 53.4142 42.8132 54.8071H23.3985C22.7563 54.8071 22.2357 55.3278 22.2357 55.9698C22.2357 56.6119 22.7563 57.1325 23.3985 57.1325H44.6598C46.0616 58.6817 47.7148 60.0002 49.2826 60.0002C53.0652 60.0002 57.3467 52.3267 57.3879 52.25C59.2594 48.7635 59.952 45.7857 59.8585 41.6288ZM37.382 13.4276H30.9804C29.7709 10.2682 29.5421 7.66294 29.501 3.83845C33.6948 5.32171 36.7435 9.02214 37.382 13.4276ZM24.1155 2.32541H27.1671C27.1745 6.82602 27.2885 9.87418 28.5069 13.4276H22.778C23.9943 9.87406 24.1083 6.82556 24.1155 2.32541ZM21.7828 3.74671C21.7444 7.62155 21.5221 10.2429 20.3052 13.4278H13.631C14.2942 8.96494 17.5024 5.16416 21.7828 3.74671ZM12.6228 15.7531H20.4011C20.4696 15.8086 20.5359 15.8157 20.5914 15.7531H38.3908C39.2282 15.7531 39.9096 16.4343 39.9096 17.2719C39.9096 18.1113 39.2284 18.7941 38.3908 18.7941H12.6228C11.7836 18.7941 11.1007 18.1113 11.1007 17.2719C11.1007 16.4344 11.7835 15.7531 12.6228 15.7531ZM13.42 22.6283V21.1194H37.5935V22.6283C37.5935 27.0612 33.2989 32.5437 28.403 34.3611C26.2607 35.1572 24.7398 35.1565 22.5925 34.3586C17.7062 32.5337 13.42 27.0521 13.42 22.6283ZM18.2454 41.5604C17.042 39.9893 15.8833 37.9267 16.4402 34.9326C16.9531 34.767 17.4831 34.616 18.0326 34.4824C19.205 35.3426 20.4696 36.0481 21.7805 36.5377C22.2025 36.6945 22.6085 36.8236 23.0057 36.9311L18.2454 41.5604ZM32.767 41.5597L28.0038 36.9297C28.3959 36.8233 28.7966 36.6957 29.2126 36.5411C30.53 36.0521 31.8008 35.3451 32.9787 34.4822C33.5214 34.6143 34.0522 34.7639 34.5701 34.9316C35.1283 37.9215 33.97 39.9862 32.767 41.5597ZM55.3386 51.1507C53.9636 53.717 50.7435 57.6746 49.2826 57.6746C47.8218 57.6746 44.6017 53.717 43.2259 51.1491C41.6894 48.2921 41.0588 45.9096 41.0246 42.6657C42.279 42.427 43.5848 41.9589 44.8689 41.3052C44.914 41.2855 44.958 41.2624 45.0011 41.2366C46.5005 40.4572 47.9669 39.4258 49.2822 38.1999C51.7585 40.5102 54.7733 42.1395 57.5397 42.6658C57.5031 45.9102 56.8727 48.2932 55.3386 51.1507Z" fill="#3D72FC"></path><path d="M18.1354 54.8066C17.4932 54.8066 16.9727 55.3273 16.9727 55.9693C16.9727 56.6114 17.4932 57.1321 18.1354 57.1321H18.142C18.7842 57.1321 19.3013 56.6114 19.3013 55.9693C19.3013 55.3273 18.7775 54.8066 18.1354 54.8066Z" fill="#3D72FC"></path></g><defs><clipPath id="clip0_1_2768"><rect width="60" height="60" fill="white"></rect></clipPath></defs></svg>