<svg xmlns="http://www.w3.org/2000/svg" width="60" height="60" viewBox="0 0 60 60" fill="none"><path d="M59.3773 14.4314C58.991 14.2025 58.5133 14.1936 58.119 14.4086L44.3525 21.9255V17.4153C44.3485 13.9066 41.5052 11.0633 37.9966 11.0593H6.35593C2.84726 11.0633 0.00397246 13.9066 0 17.4153V42.5113C0.00397246 46.0199 2.84726 48.8632 6.35593 48.8672H37.9966C41.5052 48.8632 44.3485 46.0199 44.3525 42.5113V38.083L58.1195 45.5998C58.5133 45.8149 58.9915 45.8064 59.3773 45.5775C59.7636 45.3481 60 44.9325 60 44.4841V15.5244C60 15.0755 59.7631 14.6604 59.3773 14.4314ZM41.8091 42.5118C41.8071 44.6172 40.101 46.3228 37.9956 46.3253H6.35593C4.25053 46.3228 2.54486 44.6172 2.54237 42.5118V17.4153C2.54486 15.3104 4.25053 13.6042 6.35593 13.6017H37.9966C40.1015 13.6042 41.8076 15.3104 41.8101 17.4153L41.8091 42.5118ZM57.4576 42.3419L44.3525 35.1865V24.8219L57.4576 17.667V42.3419Z" fill="#3D72FC"></path></svg>