<svg xmlns="http://www.w3.org/2000/svg" width="50" height="50" viewBox="0 0 50 50" fill="none"><g clip-path="url(#clip0_1_2755)"><path d="M40.6253 49.9996H9.37533C6.50241 49.9996 4.16699 47.6621 4.16699 44.7912V36.4579C4.16699 35.8829 4.63366 35.4163 5.20866 35.4163C5.78366 35.4163 6.25033 35.8829 6.25033 36.4579V44.7912C6.25033 46.5142 7.65241 47.9162 9.37533 47.9162H40.6253C42.3482 47.9162 43.7503 46.5142 43.7503 44.7912V36.4579C43.7503 35.8829 44.217 35.4163 44.792 35.4163C45.367 35.4163 45.8337 35.8829 45.8337 36.4579V44.7912C45.8337 47.6621 43.4982 49.9996 40.6253 49.9996Z" fill="#3D72FC"></path><path d="M44.792 14.625C44.217 14.625 43.7503 14.1583 43.7503 13.5833V5.20833C43.7503 3.48542 42.3482 2.08333 40.6253 2.08333H9.37533C7.65241 2.08333 6.25033 3.48542 6.25033 5.20833V13.5417C6.25033 14.1167 5.78366 14.5833 5.20866 14.5833C4.63366 14.5833 4.16699 14.1167 4.16699 13.5417V5.20833C4.16699 2.3375 6.50241 0 9.37533 0H40.6253C43.4982 0 45.8337 2.3375 45.8337 5.20833V13.5833C45.8337 14.1583 45.367 14.625 44.792 14.625Z" fill="#3D72FC"></path><path d="M7.29167 31.25H3.125C1.40208 31.25 0 29.8479 0 28.125V21.875C0 20.1521 1.40208 18.75 3.125 18.75H7.29167C7.86667 18.75 8.33333 19.2167 8.33333 19.7917C8.33333 20.3667 7.86667 20.8333 7.29167 20.8333H3.125C2.55208 20.8333 2.08333 21.3 2.08333 21.875V28.125C2.08333 28.7 2.55208 29.1667 3.125 29.1667H7.29167C7.86667 29.1667 8.33333 29.6333 8.33333 30.2083C8.33333 30.7833 7.86667 31.25 7.29167 31.25Z" fill="#3D72FC"></path><path d="M17.7087 31.25H11.4587C10.8837 31.25 10.417 30.7833 10.417 30.2083V19.7917C10.417 19.2167 10.8837 18.75 11.4587 18.75C12.0337 18.75 12.5003 19.2167 12.5003 19.7917V29.1667H17.7087C18.2837 29.1667 18.7503 29.6333 18.7503 30.2083C18.7503 30.7833 18.2837 31.25 17.7087 31.25Z" fill="#3D72FC"></path><path d="M35.9375 31.25H32.2917C31.7167 31.25 31.25 30.7833 31.25 30.2083C31.25 29.6333 31.7167 29.1667 32.2917 29.1667H35.9375C36.7979 29.1667 37.5 28.4667 37.5 27.6042C37.5 26.7417 36.7979 26.0417 35.9375 26.0417H34.8958C32.8854 26.0417 31.25 24.4062 31.25 22.3958C31.25 20.3854 32.8854 18.75 34.8958 18.75H38.5417C39.1167 18.75 39.5833 19.2167 39.5833 19.7917C39.5833 20.3667 39.1167 20.8333 38.5417 20.8333H34.8958C34.0354 20.8333 33.3333 21.5333 33.3333 22.3958C33.3333 23.2583 34.0354 23.9583 34.8958 23.9583H35.9375C37.9479 23.9583 39.5833 25.5938 39.5833 27.6042C39.5833 29.6146 37.9479 31.25 35.9375 31.25Z" fill="#3D72FC"></path><path d="M46.3545 31.25H42.7087C42.1337 31.25 41.667 30.7833 41.667 30.2083C41.667 29.6333 42.1337 29.1667 42.7087 29.1667H46.3545C47.2149 29.1667 47.917 28.4667 47.917 27.6042C47.917 26.7417 47.2149 26.0417 46.3545 26.0417H45.3128C43.3024 26.0417 41.667 24.4062 41.667 22.3958C41.667 20.3854 43.3024 18.75 45.3128 18.75H48.9587C49.5337 18.75 50.0003 19.2167 50.0003 19.7917C50.0003 20.3667 49.5337 20.8333 48.9587 20.8333H45.3128C44.4524 20.8333 43.7503 21.5333 43.7503 22.3958C43.7503 23.2583 44.4524 23.9583 45.3128 23.9583H46.3545C48.3649 23.9583 50.0003 25.5938 50.0003 27.6042C50.0003 29.6146 48.3649 31.25 46.3545 31.25Z" fill="#3D72FC"></path><path d="M28.1247 31.25C27.5497 31.25 27.083 30.7833 27.083 30.2083V22.9167C27.083 21.7687 26.1497 20.8333 24.9997 20.8333C23.8497 20.8333 22.9163 21.7687 22.9163 22.9167V30.2083C22.9163 30.7833 22.4497 31.25 21.8747 31.25C21.2997 31.25 20.833 30.7833 20.833 30.2083V22.9167C20.833 20.6187 22.7018 18.75 24.9997 18.75C27.2976 18.75 29.1663 20.6187 29.1663 22.9167V30.2083C29.1663 30.7833 28.6997 31.25 28.1247 31.25Z" fill="#3D72FC"></path><path d="M27.6045 27.0833H22.3962C21.8212 27.0833 21.3545 26.6167 21.3545 26.0417C21.3545 25.4667 21.8212 25 22.3962 25H27.6045C28.1795 25 28.6462 25.4667 28.6462 26.0417C28.6462 26.6167 28.1795 27.0833 27.6045 27.0833Z" fill="#3D72FC"></path></g><defs><clipPath id="clip0_1_2755"><rect width="50" height="50" fill="white"></rect></clipPath></defs></svg>