<svg xmlns="http://www.w3.org/2000/svg" width="70" height="70" viewBox="0 0 70 70" fill="none"><circle opacity="0.3" cx="35" cy="35" r="35" fill="#3D72FC"></circle><path d="M47.9259 43.9677L46.3624 38.2115H39.427L38.267 41.4576C33.6964 40.0235 29.9768 36.304 28.5427 31.7333L31.7889 30.5733V23.6381L26.047 22.0783L26.0327 22.0746C24.493 21.6897 23 22.8529 23 24.4423V27.3792C23 38.1678 31.8427 47.0004 42.6211 47.0004H45.558C47.1449 47.0004 48.3113 45.5097 47.9259 43.9677ZM45.558 45.5356H42.6211C32.6097 45.5356 24.4648 37.3907 24.4648 27.3792V24.4423C24.4648 23.8094 25.0574 23.3447 25.6712 23.4941L30.3241 24.7581V29.5413L26.7702 30.8112L26.9404 31.4607C28.4103 37.0683 32.9287 41.5891 38.5397 43.0599L39.1891 43.2302L40.4591 39.6763H45.2423L46.5063 44.3292C46.6555 44.943 46.1909 45.5356 45.558 45.5356Z" fill="#3D72FC"></path><path d="M35.5488 22V23.4648C41.6066 23.4648 46.535 28.3932 46.535 34.4509H47.9997C47.9998 27.5697 42.431 22 35.5488 22Z" fill="#3D72FC"></path><path d="M35.5488 24.9297V26.3945C39.9912 26.3945 43.6053 30.0086 43.6053 34.451H45.0701C45.0702 29.201 40.7989 24.9297 35.5488 24.9297Z" fill="#3D72FC"></path><path d="M35.5488 27.8594V29.3242C38.3758 29.3242 40.6757 31.6241 40.6757 34.451H42.1405C42.1405 30.8164 39.1835 27.8594 35.5488 27.8594Z" fill="#3D72FC"></path></svg>