<svg xmlns="http://www.w3.org/2000/svg" width="70" height="70" viewBox="0 0 70 70" fill="none"><circle opacity="0.3" cx="35" cy="35" r="35" fill="#F14D5D"></circle><path d="M46.1497 30.033C45.9204 29.8434 40.6945 25.6409 39.5457 24.7275C38.4664 23.8648 36.6209 22 34.5 22C32.3904 22 30.5627 23.8417 29.4543 24.7275C28.2599 25.6772 23.0544 29.864 22.8552 30.0277C22.5878 30.2476 22.3724 30.524 22.2246 30.837C22.0767 31.15 22 31.4919 22 31.8381V44.6562C22 45.9507 23.0493 47 24.3438 47H44.6562C45.9507 47 47 45.9507 47 44.6562V31.8393C47 31.4942 46.9238 31.1533 46.7768 30.8411C46.6298 30.5288 46.4157 30.2529 46.1497 30.033ZM44.6562 44.3633C44.6562 44.441 44.6254 44.5155 44.5704 44.5704C44.5155 44.6254 44.441 44.6562 44.3633 44.6562H24.6367C24.559 44.6562 24.4845 44.6254 24.4296 44.5704C24.3746 44.5155 24.3438 44.441 24.3438 44.3633V31.9779C24.3438 31.8894 24.3836 31.8057 24.4524 31.7501C25.2273 31.1244 29.7646 27.475 30.9155 26.56C31.8025 25.8516 33.3476 24.3438 34.5 24.3438C35.6569 24.3438 37.2274 25.8754 38.0845 26.56C39.2355 27.4751 43.7731 31.1251 44.5477 31.7512C44.5816 31.7787 44.609 31.8134 44.6278 31.8528C44.6466 31.8922 44.6563 31.9353 44.6562 31.9789V44.3633ZM43.0942 35.198C43.3017 35.45 43.2634 35.8228 43.009 36.0272C41.5942 37.1641 40.1147 38.3513 39.5457 38.8037C38.4373 39.6896 36.6096 41.5312 34.5 41.5312C32.3783 41.5312 30.5309 39.6642 29.4543 38.8037C28.9036 38.3659 27.4161 37.1722 25.9911 36.0271C25.7367 35.8227 25.6985 35.4499 25.9059 35.1979L26.6509 34.2933C26.8549 34.0456 27.2201 34.008 27.4702 34.209C28.8676 35.3321 30.3299 36.5056 30.9155 36.9712C31.7726 37.6558 33.3431 39.1875 34.5 39.1875C35.6524 39.1875 37.1976 37.6797 38.0845 36.9712C38.6701 36.5057 40.1325 35.3321 41.5299 34.2091C41.78 34.0082 42.1452 34.0458 42.3492 34.2935L43.0942 35.198Z" fill="#F14D5D"></path></svg>