<svg xmlns="http://www.w3.org/2000/svg" width="60" height="60" viewBox="0 0 60 60" fill="none"><path d="M40.6896 35.2982L32.3239 29.024V16.2433C32.3239 14.9582 31.2852 13.9194 30.0001 13.9194C28.715 13.9194 27.6763 14.9582 27.6763 16.2433V30.186C27.6763 30.918 28.0202 31.6082 28.6058 32.0451L37.9009 39.0164C38.3191 39.3301 38.8072 39.4812 39.2928 39.4812C40.0016 39.4812 40.6987 39.1628 41.1542 38.5493C41.9259 37.5244 41.7167 36.0674 40.6896 35.2982Z" fill="#3D72FC"></path><path d="M30 0C13.457 0 0 13.457 0 30C0 46.543 13.457 60 30 60C46.543 60 60 46.543 60 30C60 13.457 46.543 0 30 0ZM30 55.3525C16.0225 55.3525 4.64754 43.9775 4.64754 30C4.64754 16.0225 16.0225 4.64754 30 4.64754C43.9799 4.64754 55.3525 16.0225 55.3525 30C55.3525 43.9775 43.9775 55.3525 30 55.3525Z" fill="#3D72FC"></path></svg>