<svg xmlns="http://www.w3.org/2000/svg" width="70" height="70" viewBox="0 0 70 70" fill="none"><circle opacity="0.3" cx="35" cy="35" r="35" fill="#F2A630"></circle><g clip-path="url(#clip0_1_149)"><path d="M34.9935 20C30.2407 20 26.374 23.8667 26.374 28.6195C26.374 30.5952 27.0578 32.5213 28.3008 34.0515C28.31 34.0658 28.32 34.0798 28.3306 34.0934L34.5316 42.0378C34.6427 42.1801 34.813 42.2632 34.9935 42.2632C35.174 42.2632 35.3443 42.18 35.4554 42.0377L41.6861 34.0515C41.6883 34.0487 41.6904 34.046 41.6925 34.0432C42.931 32.5149 43.6129 30.5897 43.6129 28.6195C43.613 23.8667 39.7463 20 34.9935 20ZM40.7696 33.3209C40.7621 33.3301 40.7551 33.3393 40.7483 33.3487L34.9934 40.725L29.2966 33.4266C29.2824 33.4034 29.2664 33.3811 29.2489 33.3598C28.1506 32.0305 27.5458 30.347 27.5458 28.6195C27.5458 24.5128 30.8869 21.1718 34.9935 21.1718C39.1002 21.1718 42.4412 24.5128 42.4413 28.6195C42.4413 30.3286 41.8476 31.9982 40.7696 33.3209Z" fill="#F2A630"></path><path d="M40.0495 27.2514C39.9579 26.941 39.6321 26.7637 39.3218 26.8553C39.0114 26.9468 38.834 27.2726 38.9256 27.583C39.3515 29.0268 38.9556 30.5843 37.8923 31.6476C37.1178 32.4222 36.0879 32.8488 34.9925 32.8488C33.897 32.8488 32.8671 32.4222 32.0925 31.6475C31.3179 30.8729 30.8914 29.8431 30.8914 28.7476C30.8914 27.6521 31.3179 26.6222 32.0926 25.8477C33.157 24.7833 34.7157 24.3877 36.1606 24.8154C36.471 24.9074 36.7969 24.7302 36.8887 24.42C36.9806 24.1097 36.8035 23.7837 36.4933 23.6919C34.6361 23.1422 32.6324 23.6508 31.2641 25.0191C30.2682 26.015 29.7197 27.3392 29.7197 28.7476C29.7197 30.156 30.2682 31.4801 31.2641 32.476C32.26 33.472 33.5842 34.0204 34.9926 34.0204C36.401 34.0204 37.7251 33.472 38.721 32.4762C40.0879 31.1092 40.597 29.1072 40.0495 27.2514Z" fill="#F2A630"></path><path d="M38.7313 25.0294L38.7209 25.019C38.492 24.7902 38.1211 24.7902 37.8923 25.019C37.6635 25.2479 37.6635 25.6188 37.8923 25.8476L37.9027 25.858C38.0171 25.9725 38.167 26.0296 38.3169 26.0296C38.4669 26.0296 38.6168 25.9725 38.7313 25.858C38.96 25.6292 38.96 25.2583 38.7313 25.0294Z" fill="#F2A630"></path><path d="M43.9999 37.8889C43.6925 37.788 43.3613 37.9549 43.2602 38.2623C43.159 38.5696 43.3262 38.9008 43.6335 39.002C46.8849 40.0719 48.8259 41.6749 48.8259 43.2901C48.8259 44.6558 47.4174 46.0377 44.9614 47.0812C42.31 48.2078 38.7721 48.8282 34.9993 48.8282C31.2265 48.8282 27.6887 48.2078 25.0373 47.0812C22.5813 46.0377 21.1727 44.6558 21.1727 43.2901C21.1727 42.1463 22.1592 40.9845 23.9505 40.0186C25.8432 38.9979 28.5236 38.2588 31.4978 37.9372C31.8195 37.9024 32.0521 37.6135 32.0173 37.2918C31.9825 36.9701 31.6935 36.7372 31.3719 36.7723C28.2504 37.1097 25.4173 37.8964 23.3943 38.9872C21.1744 40.1844 20.001 41.6722 20.001 43.2901C20.001 45.1758 21.6268 46.9052 24.579 48.1596C27.3721 49.3463 31.0727 49.9999 34.9994 49.9999C38.9261 49.9999 42.6267 49.3463 45.4196 48.1596C48.3718 46.9052 49.9977 45.1759 49.9977 43.2901C49.9977 41.1119 47.8116 39.1433 43.9999 37.8889Z" fill="#F2A630"></path><path d="M41.3189 37.1867L41.2985 37.1826C40.9814 37.1186 40.6723 37.3239 40.6083 37.6411C40.5444 37.9582 40.7497 38.2672 41.0668 38.3312L41.0872 38.3353C41.1264 38.3432 41.1653 38.347 41.2037 38.347C41.4768 38.347 41.7213 38.1549 41.7774 37.8768C41.8413 37.5597 41.6361 37.2506 41.3189 37.1867Z" fill="#F2A630"></path><path d="M30.5706 39.7474C30.5072 39.4302 30.1985 39.2245 29.8812 39.2878C29.868 39.2905 29.854 39.2937 29.841 39.2973C29.5289 39.3824 29.3448 39.7045 29.43 40.0167C29.501 40.2773 29.7372 40.4486 29.9949 40.4486C30.041 40.4486 30.0877 40.4431 30.1343 40.4317C30.4384 40.3581 30.6326 40.0569 30.5706 39.7474Z" fill="#F2A630"></path><path d="M36.9553 38.7938C36.6324 38.7689 36.3507 39.0096 36.3254 39.3321C36.3002 39.6547 36.5412 39.9367 36.8638 39.9619C40.6891 40.2614 42.7265 41.3802 42.7265 42.0727C42.7265 42.4068 42.1938 42.9744 40.6927 43.4743C39.1809 43.9778 37.1594 44.2551 35.0004 44.2551C32.8415 44.2551 30.8199 43.9779 29.3081 43.4743C27.807 42.9744 27.2744 42.4068 27.2744 42.0727C27.2744 41.7674 27.6884 41.3824 28.382 41.0431C28.6726 40.9009 28.7929 40.5501 28.6507 40.2594C28.5085 39.9688 28.1577 39.8485 27.867 39.9907C26.4087 40.7043 26.1025 41.5168 26.1025 42.0728C26.1025 44.2749 30.5787 45.427 35.0003 45.427C39.422 45.427 43.8982 44.2749 43.8982 42.0728C43.8983 40.0536 40.1581 39.0445 36.9553 38.7938Z" fill="#F2A630"></path></g><defs><clipPath id="clip0_1_149"><rect width="30" height="30" fill="white" transform="translate(20 20)"></rect></clipPath></defs></svg>