<svg xmlns="http://www.w3.org/2000/svg" width="60" height="56" viewBox="0 0 60 56" fill="none"><path d="M9.80566 52.9805C9.49629 52.9805 9.19512 53.1048 8.97715 53.3227C8.75801 53.5406 8.63379 53.843 8.63379 54.1523C8.63379 54.4605 8.75801 54.7617 8.97715 54.9809C9.19512 55.1987 9.49746 55.3242 9.80566 55.3242C10.1139 55.3242 10.415 55.1988 10.6342 54.9809C10.8521 54.7617 10.9775 54.4605 10.9775 54.1523C10.9775 53.843 10.8521 53.5418 10.6342 53.3227C10.4162 53.1048 10.1139 52.9805 9.80566 52.9805Z" fill="#3D72FC"></path><path d="M55.2142 41.4476H53.46L51.2583 36.2612C50.62 34.7576 49.1518 33.786 47.5184 33.786H40.1776C40.1439 33.7431 40.108 33.7013 40.0675 33.6623C37.9268 31.6105 35.1144 30.4806 32.1484 30.4806H27.3196L27.1875 30.348V26.3097C29.4582 24.8659 31.1164 22.5413 31.6718 19.8184H32.1094C34.3064 19.8184 36.0938 18.0311 36.0938 15.834C36.0938 13.637 34.3064 11.8496 32.1094 11.8496H31.875V10.752C31.875 5.19492 27.3539 0.673828 21.7969 0.673828C16.2398 0.673828 11.7188 5.1948 11.7188 10.752V11.8496H11.4844C9.28734 11.8496 7.5 13.637 7.5 15.834C7.5 18.0311 9.28734 19.8184 11.4844 19.8184H11.922C12.4774 22.5411 14.1355 24.8659 16.4062 26.3097V30.348L16.2742 30.4806H11.4454C5.13434 30.4806 0 35.615 0 41.9259V54.1525C0 54.7996 0.524648 55.3243 1.17188 55.3243H5.11723C5.76445 55.3243 6.2891 54.7996 6.2891 54.1525C6.2891 53.5054 5.76445 52.9806 5.11723 52.9806H2.34375V41.9259C2.34375 36.9073 6.42668 32.8243 11.4454 32.8243H13.9386L12.5735 34.1943C12.1171 34.6522 12.1179 35.3934 12.5754 35.8505L17.163 40.4336C17.3918 40.6622 17.6916 40.7764 17.9912 40.7764C18.2911 40.7764 18.5911 40.662 18.8198 40.4332L18.9483 40.3048L20.5055 41.862L17.8631 52.9805H14.4922C13.845 52.9805 13.3204 53.5052 13.3204 54.1523C13.3204 54.7995 13.845 55.3242 14.4922 55.3242H24.7984C24.8002 55.3242 24.802 55.3245 24.8038 55.3245C24.8051 55.3245 24.8064 55.3242 24.8078 55.3242H42.4219C43.0691 55.3242 43.5938 54.7995 43.5938 54.1523V51.5186H49.3695C49.3692 51.5372 49.368 51.5555 49.368 51.5742C49.368 53.642 51.0503 55.3242 53.118 55.3242C55.1858 55.3242 56.868 53.642 56.868 51.5742C56.868 51.5577 56.867 51.5414 56.8668 51.525H58.8281C59.4754 51.525 60 51.0002 60 50.3531V46.2333C60 43.5946 57.8531 41.4476 55.2142 41.4476ZM49.101 37.1772L50.9139 41.4476H43.9903V36.1297H47.5184C48.2096 36.1297 48.8309 36.5409 49.101 37.1772ZM38.1184 36.1297H41.6464V41.4476H34.7229L36.5358 37.1773C36.806 36.5409 37.4272 36.1297 38.1184 36.1297ZM32.1484 32.8243C33.7679 32.8243 35.3297 33.2481 36.7005 34.0418C35.6733 34.4237 34.8237 35.2124 34.3784 36.2613L32.1766 41.4476H31.5045C28.8655 41.4476 26.7186 43.5945 26.7186 46.2334V50.3532C26.7186 50.6644 26.8424 50.9627 27.0626 51.1826C27.2823 51.402 27.5801 51.5251 27.8905 51.5251C27.8911 51.5251 27.8918 51.5251 27.8924 51.5251L30.866 51.5204C30.8658 51.5385 30.8646 51.5563 30.8646 51.5743C30.8646 52.0716 30.9627 52.5461 31.1392 52.9806H25.7305L23.0882 41.8621L24.6454 40.3049L24.7738 40.4333C25.0027 40.6621 25.3024 40.7766 25.6024 40.7766C25.9022 40.7766 26.2018 40.6622 26.4306 40.4337L31.0182 35.8506C31.4756 35.3937 31.4766 34.6523 31.0201 34.1944L29.655 32.8245H32.1484V32.8243ZM33.2085 51.5743C33.2085 50.7989 33.8393 50.1681 34.6147 50.1681C35.3902 50.1681 36.021 50.7989 36.021 51.5743C36.021 52.3498 35.3902 52.9806 34.6147 52.9806C33.8393 52.9806 33.2085 52.3499 33.2085 51.5743ZM26.4236 32.9019L28.5339 35.0197L25.6029 37.9478L25.4741 37.819L23.4904 35.8352L26.4236 32.9019ZM33.75 15.8341C33.75 16.7388 33.0141 17.4748 32.1094 17.4748H31.875V14.1935H32.1094C33.0141 14.1935 33.75 14.9295 33.75 15.8341ZM14.0625 10.7521C14.0625 6.48738 17.5321 3.0177 21.7969 3.0177C26.0617 3.0177 29.5312 6.48727 29.5312 10.7521V11.8498H26.8829C26.4145 11.8498 25.9631 11.7396 25.5584 11.5315C26.0913 11.135 26.5993 10.6966 27.0776 10.2184C27.5352 9.76078 27.5352 9.01875 27.0776 8.56102C26.62 8.1034 25.8779 8.1034 25.4202 8.56102C23.2996 10.6818 20.4799 11.8496 17.4809 11.8496H14.0625V10.7521ZM9.84375 15.8341C9.84375 14.9295 10.5797 14.1935 11.4844 14.1935H11.7188V17.4748H11.4844C10.5797 17.4748 9.84375 16.7388 9.84375 15.8341ZM14.0625 17.801V14.1935H17.481C19.5578 14.1935 21.5632 13.7302 23.3795 12.8525C24.3434 13.7194 25.5768 14.1935 26.8829 14.1935H29.5312V17.801C29.5312 22.0658 26.0617 25.5354 21.7969 25.5354C17.5321 25.5354 14.0625 22.0657 14.0625 17.801ZM21.7969 27.8791C22.8586 27.8791 23.882 27.713 24.8438 27.4072V31.1671L21.7969 34.2139L18.75 31.1671V27.4072C19.7118 27.713 20.7352 27.8791 21.7969 27.8791ZM15.0599 35.0197L17.1702 32.9019L20.1035 35.8352L18.1198 37.819L17.991 37.9478L15.0599 35.0197ZM21.7969 37.4563L22.9882 38.6476L21.7969 39.8389L20.6055 38.6476L21.7969 37.4563ZM21.7969 46.5646L23.3216 52.9806H20.272L21.7969 46.5646ZM41.25 52.9806H38.0902C38.2666 52.5461 38.3647 52.0716 38.3647 51.5743C38.3647 51.5557 38.3636 51.5373 38.3633 51.5187H41.25V52.9806ZM53.118 52.9806C52.3426 52.9806 51.7118 52.3498 51.7118 51.5743C51.7118 50.7989 52.3426 50.1681 53.118 50.1681C53.8935 50.1681 54.5243 50.7989 54.5243 51.5743C54.5243 52.3498 53.8935 52.9806 53.118 52.9806ZM57.6562 49.1814H56.0029C55.3145 48.3529 54.2769 47.8243 53.118 47.8243C51.9622 47.8243 50.9272 48.3503 50.2388 49.1749H37.494C36.8055 48.3502 35.7705 47.8243 34.6147 47.8243C33.4588 47.8243 32.4237 48.3504 31.7352 49.1753L29.0625 49.1796V46.2334C29.0625 44.8869 30.158 43.7913 31.5046 43.7913H32.9524H41.6466V45.6945C41.6466 46.3416 42.1712 46.8663 42.8184 46.8663C43.4657 46.8663 43.9903 46.3416 43.9903 45.6945V43.7913H52.6845H55.2142C56.5608 43.7913 57.6562 44.8869 57.6562 46.2334V49.1814Z" fill="#3D72FC"></path></svg>