<svg xmlns="http://www.w3.org/2000/svg" width="61" height="66" viewBox="0 0 61 66" fill="none"><path d="M53.2653 65.4556H20.5379C16.7797 65.4556 13.7197 62.3983 13.7197 58.6374V17.7282C13.7197 13.9673 16.7797 10.91 20.5379 10.91H53.2653C57.0235 10.91 60.0835 13.9673 60.0835 17.7282V58.6374C60.0835 62.3983 57.0235 65.4556 53.2653 65.4556ZM20.5379 13.6373C18.2825 13.6373 16.447 15.4727 16.447 17.7282V58.6374C16.447 60.8929 18.2825 62.7283 20.5379 62.7283H53.2653C55.5208 62.7283 57.3562 60.8929 57.3562 58.6374V17.7282C57.3562 15.4727 55.5208 13.6373 53.2653 13.6373H20.5379Z" fill="#3D72FC"></path><path d="M9.62898 57.2729H6.9017C3.14351 57.2729 0.0834961 54.2156 0.0834961 50.4547V6.81821C0.0834961 3.05728 3.14351 0 6.9017 0H39.6291C43.3873 0 46.4473 3.05728 46.4473 6.81821C46.4473 7.57094 45.8364 8.18185 45.0837 8.18185C44.3309 8.18185 43.72 7.57094 43.72 6.81821C43.72 4.56274 41.8846 2.72728 39.6291 2.72728H6.9017C4.64624 2.72728 2.81078 4.56274 2.81078 6.81821V50.4547C2.81078 52.7102 4.64624 54.5456 6.9017 54.5456H9.62898C10.3817 54.5456 10.9926 55.1566 10.9926 55.9093C10.9926 56.662 10.3817 57.2729 9.62898 57.2729Z" fill="#3D72FC"></path><path d="M47.8108 46.3647H25.9925C25.2398 46.3647 24.6289 45.7538 24.6289 45.001C24.6289 44.2483 25.2398 43.6374 25.9925 43.6374H47.8108C48.5635 43.6374 49.1744 44.2483 49.1744 45.001C49.1744 45.7538 48.5635 46.3647 47.8108 46.3647Z" fill="#3D72FC"></path><path d="M47.8108 57.2721H25.9925C25.2398 57.2721 24.6289 56.6612 24.6289 55.9084C24.6289 55.1557 25.2398 54.5448 25.9925 54.5448H47.8108C48.5635 54.5448 49.1744 55.1557 49.1744 55.9084C49.1744 56.6612 48.5635 57.2721 47.8108 57.2721Z" fill="#3D72FC"></path><path d="M47.8108 35.4547H25.9925C25.2398 35.4547 24.6289 34.8438 24.6289 34.0911C24.6289 33.3383 25.2398 32.7274 25.9925 32.7274H47.8108C48.5635 32.7274 49.1744 33.3383 49.1744 34.0911C49.1744 34.8438 48.5635 35.4547 47.8108 35.4547Z" fill="#3D72FC"></path><path d="M47.8108 24.5447H25.9925C25.2398 24.5447 24.6289 23.9338 24.6289 23.181C24.6289 22.4283 25.2398 21.8174 25.9925 21.8174H47.8108C48.5635 21.8174 49.1744 22.4283 49.1744 23.181C49.1744 23.9338 48.5635 24.5447 47.8108 24.5447Z" fill="#3D72FC"></path></svg>