<svg xmlns="http://www.w3.org/2000/svg" width="60" height="65" viewBox="0 0 60 65" fill="none"><path d="M56.193 41.0518C55.8482 40.8802 55.4804 40.7588 55.1017 40.6908C54.0967 40.4951 53.0551 40.6688 52.1678 41.1794L40.2105 48.0793C39.7255 46.7788 38.6447 45.79 37.3059 45.4222L24.3933 41.9678C23.9418 41.847 23.4762 41.7857 23.009 41.7857H16.1959C15.2265 41.7857 14.2749 42.0489 13.4431 42.5464L10.7143 44.1813V40.7143H0V64.2858H10.7143V60.5263L13.859 61.7678C14.4852 62.0163 15.1533 62.1434 15.8271 62.1429H33.0662C34.0628 62.1429 35.0396 61.8651 35.8866 61.3404L56.4577 48.6041C57.7823 47.8392 58.5948 46.4225 58.5859 44.8928C58.5854 44.141 58.3887 43.4023 58.0146 42.7499C57.5929 42.0128 56.9578 41.4211 56.193 41.0518ZM8.57143 62.1429H2.14286V42.8572H8.57143V62.1429ZM55.3544 46.7678L34.7581 59.5177C34.2501 59.8331 33.6642 60.0006 33.0662 60H15.8271C15.4238 59.9995 15.0241 59.9231 14.6484 59.7751L10.7143 58.2213V46.6789L14.5449 44.3848C15.0434 44.0866 15.6142 43.9286 16.1959 43.9286H23.009C23.2894 43.9276 23.5683 43.9637 23.8393 44.0359L36.7498 47.4913C37.6114 47.7262 38.2397 48.467 38.3302 49.3553C38.3381 49.4783 38.3381 49.6012 38.3302 49.7242C38.3167 49.8576 38.2962 49.9899 38.268 50.1212C38.019 51.0477 37.184 51.6954 36.2251 51.7069C36.0655 51.6965 35.4356 51.5678 34.9831 51.4652L23.8513 48.4864L23.2983 50.5565L34.4667 53.5448C35.0333 53.6955 35.6119 53.7975 36.1963 53.8498C38.1367 53.8477 39.8343 52.545 40.3392 50.6711C40.3575 50.6057 40.3575 50.5371 40.3716 50.4707L53.2424 43.0351C53.6865 42.7813 54.2076 42.696 54.7093 42.796C54.8982 42.83 55.0818 42.8907 55.2534 42.9759C55.6311 43.1569 55.9455 43.4478 56.1548 43.8109C56.3442 44.14 56.4446 44.513 56.4462 44.8928C56.4488 45.6697 56.0313 46.3869 55.3544 46.7678Z" fill="#3D72FC"></path><path d="M38.5713 28.9286C35.6678 28.9286 33.2141 27.4564 33.2141 25.7143H31.0713C31.0713 28.4572 33.8205 30.6513 37.4999 31.0133V34.2857H39.6427V31.0133C43.3221 30.6513 46.0713 28.4572 46.0713 25.7143C46.0713 22.7145 42.7764 20.3571 38.5713 20.3571C35.6678 20.3571 33.2141 18.885 33.2141 17.1428C33.2141 15.4007 35.6678 13.9286 38.5713 13.9286C41.4748 13.9286 43.9284 15.4007 43.9284 17.1428H46.0713C46.0713 14.3999 43.3221 12.2058 39.6427 11.8438V8.57141H37.4999V11.8438C33.8205 12.2058 31.0713 14.3999 31.0713 17.1428C31.0713 20.1426 34.3661 22.5 38.5713 22.5C41.4748 22.5 43.9284 23.9721 43.9284 25.7143C43.9284 27.4564 41.4748 28.9286 38.5713 28.9286Z" fill="#3D72FC"></path><path d="M38.5716 42.8571C50.4065 42.8571 60.0002 33.2635 60.0002 21.4286C60.0002 9.59368 50.4065 0 38.5716 0C26.7367 0 17.1431 9.59368 17.1431 21.4286C17.1567 33.2577 26.7425 42.8435 38.5716 42.8571ZM38.5716 2.14286C49.2226 2.14286 57.8573 10.7776 57.8573 21.4286C57.8573 32.0796 49.2226 40.7143 38.5716 40.7143C27.9207 40.7143 19.2859 32.0796 19.2859 21.4286C19.2985 10.7823 27.9254 2.15541 38.5716 2.14286Z" fill="#3D72FC"></path><path d="M38.5716 38.5714C48.0392 38.5714 55.7144 30.8962 55.7144 21.4286C55.7144 11.961 48.0392 4.28571 38.5716 4.28571C29.104 4.28571 21.4287 11.961 21.4287 21.4286C21.4397 30.8915 29.1087 38.5604 38.5716 38.5714ZM38.5716 6.42856C46.8558 6.42856 53.5716 13.1443 53.5716 21.4286C53.5716 29.7128 46.8558 36.4286 38.5716 36.4286C30.2874 36.4286 23.5716 29.7128 23.5716 21.4286C23.5805 13.148 30.291 6.43746 38.5716 6.42856Z" fill="#3D72FC"></path></svg>