<svg xmlns="http://www.w3.org/2000/svg" width="38" height="60" viewBox="0 0 38 60" fill="none"><path d="M37.7506 40.8132V32.0714C37.7506 32.0485 37.7499 32.0257 37.7486 32.0028L36.9495 18.3696C36.7301 14.6247 34.6609 14.0656 33.447 14.0656C32.5968 14.0656 31.7586 14.3141 31.0472 14.7558L30.1591 8.11037C29.7242 4.85672 27.6995 3.95261 26.0977 4.16624C24.3796 4.39582 22.6893 5.86912 21.9168 7.90915L20.5809 3.43616C19.8566 1.01139 18.3026 0.306497 17.4407 0.102236C15.9838 -0.243121 14.3643 0.30052 13.2141 1.52081C11.839 2.97982 11.3923 5.09626 12.0192 7.18223L15.7513 19.5996C13.5943 19.1365 11.702 20.1493 9.4712 21.955C7.00648 23.9501 3.03071 26.0423 2.10093 26.4934C1.13119 26.9639 0.625515 28.0287 0.78126 29.2724C0.876066 30.0288 1.2342 30.8689 1.85237 31.5541C1.39334 31.8663 1.01634 32.24 0.751494 32.6355C0.11832 33.581 0.081406 34.6471 0.652938 35.4871C0.817941 35.7295 1.00908 35.9686 1.21158 36.2216C1.86339 37.0363 2.7559 38.1522 3.62966 40.4844C4.87328 43.8041 7.01245 45.2963 8.73127 46.4953C10.3657 47.6354 11.5233 48.4446 11.8333 50.4215C11.2795 50.5149 10.8574 50.9953 10.8574 51.5757V58.8283C10.8574 59.4755 11.3821 60.0002 12.0293 60.0002H35.6014C36.2486 60.0002 36.7733 59.4755 36.7733 58.8283V51.5757C36.7733 50.9901 36.3432 50.5062 35.782 50.4191C35.9337 49.1565 36.3004 47.8651 36.6847 46.5154C37.2086 44.6743 37.7506 42.7705 37.7506 40.8132V40.8132ZM34.4294 57.6563H13.2011V52.7474H18.5413C19.1885 52.7474 19.7132 52.2228 19.7132 51.5755C19.7132 50.9283 19.1885 50.4036 18.5413 50.4036H14.1958C13.8255 47.1913 11.9205 45.862 10.0721 44.5728C8.46958 43.4548 6.81229 42.299 5.82439 39.6621C4.81949 36.9798 3.74967 35.6425 3.04173 34.7575C2.86348 34.5347 2.70926 34.3419 2.59406 34.1734C2.59934 34.1146 2.67047 33.8986 2.97516 33.635C3.43009 33.2416 4.25264 32.8919 5.19742 33.09C6.90159 33.4473 7.39918 34.1229 8.15223 35.1455C8.83451 36.0719 9.68367 37.2249 11.5253 38.1869C12.8311 38.8691 13.9286 39.3646 15.1687 39.0317C16.3406 38.7173 17.359 37.7211 18.7224 36.1067C19.8028 34.8272 19.9449 33.3657 19.1333 31.8805C18.5078 30.7354 17.3938 29.6628 16.1095 28.4794C14.0244 26.5578 11.7918 27.8936 9.99797 28.9669C8.34958 29.9531 6.64506 30.973 4.58417 30.55C3.65158 30.3586 3.29146 29.5895 3.20333 29.3583C3.04887 28.9532 3.09798 28.6677 3.13735 28.5958C4.35846 28.002 8.36142 25.8689 10.9457 23.7769C13.8898 21.3939 15.0793 21.4187 16.9541 22.6836C17.488 23.0437 17.9666 23.202 18.3512 23.329C18.8589 23.4969 19.2256 23.6181 19.8343 24.2071C20.2993 24.6572 21.0412 24.6451 21.4913 24.18C21.9414 23.7149 21.9292 22.973 21.4641 22.5229C20.4702 21.561 19.7032 21.3074 19.0868 21.1037C18.9013 21.0424 18.7457 20.9904 18.5961 20.9236L14.2638 6.50769C13.7119 4.67145 14.5387 3.53284 14.9197 3.12853C15.4971 2.51587 16.2562 2.23004 16.8999 2.38297C17.7184 2.57704 18.1321 3.42772 18.3351 4.10706L23.064 19.9396C23.3516 20.9733 23.892 21.6863 24.3691 22.3157C25.0132 23.1654 25.5695 23.8994 25.7245 25.5281C25.7823 26.1347 26.2927 26.589 26.8898 26.5889C26.9269 26.5889 26.9645 26.5871 27.0023 26.5836C27.6466 26.5222 28.1191 25.9502 28.0578 25.3059C27.8395 23.0143 26.9509 21.8419 26.2369 20.8999C25.8179 20.3472 25.487 19.9106 25.3199 19.3042C25.3177 19.2962 25.3153 19.2881 25.313 19.2802L24.7218 17.3007L23.8635 10.878C23.5439 8.48701 25.1835 6.65335 26.408 6.48964C27.3584 6.36296 27.7087 7.46993 27.8357 8.42104L30.6134 29.206C30.6922 29.7948 31.1953 30.2228 31.7735 30.2228C31.8252 30.2228 31.8776 30.2194 31.9302 30.2124C32.5717 30.1266 33.0223 29.537 32.9365 28.8955L31.4959 18.1163C31.4341 17.689 31.6392 17.3466 31.8224 17.1348C32.2091 16.6875 32.8315 16.4096 33.4466 16.4096C33.7841 16.4096 34.4866 16.4096 34.6094 18.5069L35.4068 32.1058V40.8132C35.4068 42.4434 34.9325 44.1095 34.4303 45.8736C34.0115 47.3448 33.581 48.8566 33.4252 50.4036H29.0885C28.4412 50.4036 27.9166 50.9283 27.9166 51.5755C27.9166 52.2228 28.4412 52.7474 29.0885 52.7474H34.4294V57.6563ZM8.77803 32.2789C9.66573 31.8969 10.4693 31.4162 11.2015 30.978C13.1869 29.7902 13.8237 29.5598 14.5215 30.2029C17.4427 32.8947 17.6925 33.6936 16.9317 34.5946C16.1017 35.5777 15.1711 36.6046 14.5617 36.768C14.1737 36.8721 13.6235 36.6386 12.6107 36.1095C11.2495 35.3985 10.6618 34.6005 10.0397 33.7556C9.68015 33.2676 9.30022 32.7515 8.77803 32.2789V32.2789Z" fill="#3D72FC"></path><path d="M23.8154 50.4023H23.8145C23.1672 50.4023 22.6431 50.927 22.6431 51.5742C22.6431 52.2214 23.1682 52.7461 23.8154 52.7461C24.4626 52.7461 24.9873 52.2214 24.9873 51.5742C24.9873 50.927 24.4626 50.4023 23.8154 50.4023V50.4023Z" fill="#3D72FC"></path></svg>