<svg xmlns="http://www.w3.org/2000/svg" width="70" height="70" viewBox="0 0 70 70" fill="none"><circle opacity="0.3" cx="35" cy="35" r="35" fill="#F14D5D"></circle><g clip-path="url(#clip0_1_2525)"><path d="M50.25 46.1749C46.7685 44.3287 44.0979 43.2934 41.7207 42.8966L41.9667 42.5583C42.0834 42.4416 42.1417 42.2666 42.0834 42.0916L41.5319 39.8859C42.954 37.8451 43.7706 35.2981 43.7167 32.8749V29.405C43.7563 29.3765 43.7952 29.3471 43.8334 29.3166C44.5917 28.6749 45.0001 27.7416 45.0001 26.8083C45.0001 22.4333 41.4418 18.875 37.1251 18.875H31.9334C27.5584 18.875 24.0001 22.4333 23.9417 26.75C23.9417 27.7417 24.35 28.6167 25.1084 29.2583C25.1275 29.273 25.1473 29.2867 25.1667 29.301V32.8749C25.1667 35.3057 26.0175 37.861 27.4634 39.9049L26.9167 42.0916C26.9167 42.2082 26.9167 42.3832 27.0334 42.5582L27.2794 42.8965C24.9021 43.2934 22.2315 44.3286 18.7501 46.1749C17.6417 46.6999 17 47.8082 17 49.0332V51.5416C17 51.8916 17.2333 52.1249 17.5833 52.1249H51.4166C51.7666 52.1249 51.9999 51.8916 51.9999 51.5416V49.0332C52 47.8666 51.3 46.7582 50.25 46.1749ZM40.625 41.0416L40.8583 42.0916L40.2624 42.9098C40.2244 42.9409 40.1892 42.9786 40.1583 43.0249L36.95 47.4582L35.3771 43.9048C37.0741 43.7007 38.6063 42.9143 39.8808 41.7675C40.1367 41.5419 40.3853 41.2998 40.625 41.0416ZM43.075 28.3832C43.0597 28.3966 43.0437 28.4091 43.028 28.422C42.9625 28.4372 42.8988 28.4618 42.8417 28.4999C42.5893 28.6892 42.3198 28.8096 42.0426 28.8624C41.8228 28.8961 41.5991 28.8931 41.3834 28.8499C37.1996 28.0555 32.9677 27.9825 28.906 28.6305C28.4553 28.6956 28.0059 28.7685 27.5584 28.8499C27.4865 28.8579 27.4147 28.8623 27.343 28.8637C26.874 28.8553 26.4196 28.725 26.0417 28.4416C25.6917 28.2083 25.4584 27.8583 25.3417 27.5083L27.85 27.0416C32.225 26.2249 36.7167 26.2249 41.2083 27.0416L43.6971 27.5046C43.5679 27.8349 43.3528 28.1402 43.075 28.3832ZM31.875 20.0416H37.0667C40.6448 20.0416 43.5794 22.8281 43.8173 26.3466L41.3834 25.9333C36.7751 25.1166 32.1084 25.1166 27.6167 25.9333L25.1828 26.3466C25.4204 22.8281 28.3528 20.0416 31.875 20.0416ZM26.3333 29.8999C26.8 30.0166 27.325 30.0749 27.85 29.9582C30.028 29.5517 32.2348 29.3477 34.4562 29.3459C36.6779 29.3477 38.914 29.5516 41.15 29.9582C41.3093 29.9981 41.4413 30.0105 41.5648 30.0145C41.932 30.0423 42.3158 29.9876 42.6666 29.8999V32.8749C42.6666 35.4185 41.7941 37.6788 40.484 39.3969L40.4499 39.4082C40.3916 39.4666 40.3332 39.5249 40.2749 39.5832C39.9815 39.9745 39.6717 40.3313 39.3481 40.653C37.8997 42.0024 36.1568 42.7916 34.5 42.7916H34.4999C34.4393 42.7916 34.3788 42.7903 34.3183 42.7884C33.3327 42.7545 32.3217 42.4458 31.3646 41.9109C30.4148 41.3652 29.5213 40.5786 28.725 39.5832C28.6667 39.5249 28.6083 39.4665 28.55 39.4082L28.516 39.3968C27.2059 37.6787 26.3333 35.4184 26.3333 32.8749V29.8999ZM33.6229 43.9048L32.05 47.4582L28.8417 43.0249C28.8231 43.0063 28.8026 42.9879 28.7813 42.9698L28.1417 42.0916L28.375 41.0416C28.4539 41.1265 28.5339 41.2093 28.6147 41.2908C29.9871 42.6947 31.6997 43.6735 33.6229 43.9048ZM50.8333 50.9582H37.4167H18.1667V49.0332C18.1667 48.2749 18.575 47.5749 19.275 47.2249C22.9933 45.2496 25.6699 44.2582 28.0543 43.9621L31.7 48.9749C31.7916 49.1124 31.9198 49.1772 32.0834 49.1989C32.111 49.2044 32.1388 49.2082 32.1666 49.2082C32.1666 49.2082 32.2249 49.2082 32.2249 49.2666C32.3999 49.2666 32.6332 49.0916 32.6916 48.9166L34.5032 44.8404L35.2751 46.5335L36.3083 48.8582C36.3666 49.0332 36.5416 49.2082 36.775 49.2082H36.8333C37.0083 49.2082 37.1833 49.0916 37.3 48.9749L40.9834 43.9102C43.3594 44.2687 46.084 45.2594 49.725 47.1666C50.425 47.5749 50.8333 48.2749 50.8333 49.0332V50.9582Z" fill="#F14D5D"></path><path d="M33.3333 24.7081H35.6666C36.0166 24.7081 36.2499 24.4748 36.2499 24.1248V21.2081C36.2499 20.8581 36.0166 20.6248 35.6666 20.6248H33.3333C32.9833 20.6248 32.75 20.8581 32.75 21.2081V24.1248C32.75 24.4748 32.9833 24.7081 33.3333 24.7081ZM33.9167 21.7914H35.0834V23.5414H33.9167V21.7914Z" fill="#F14D5D"></path></g><defs><clipPath id="clip0_1_2525"><rect width="35" height="35" fill="white" transform="translate(17 18)"></rect></clipPath></defs></svg>