<svg xmlns="http://www.w3.org/2000/svg" width="70" height="70" viewBox="0 0 70 70" fill="none"><circle opacity="0.3" cx="35" cy="35" r="35" fill="#6857FF"></circle><path d="M51.8373 29.2666L37.8855 22.451C36.6827 21.8497 34.638 21.8497 33.4353 22.451L19.1627 29.2666C18.1604 29.7477 18 30.4293 18 30.7901C18 31.1509 18.1604 31.7924 19.1627 32.3136L20.3253 32.8749V39.2895C19.6037 39.5702 19.0825 40.2918 19.0825 41.0936C19.0825 41.8955 19.6037 42.6171 20.2852 42.8978L18.4811 48.6309H23.5326L21.7285 42.8978C22.4502 42.6171 22.9313 41.8955 22.9313 41.0936C22.9313 40.2517 22.4101 39.5702 21.6884 39.2895V33.5564L23.8133 34.5988V42.9379C23.8133 43.0581 23.8534 43.1784 23.9336 43.2987C24.134 43.5392 27.8625 48.6309 35.48 48.6309C43.0974 48.6309 46.8259 43.4991 46.9863 43.2987C47.0664 43.1784 47.1065 43.0581 47.1065 42.9379V34.6389L51.8373 32.3136C52.8396 31.8325 53 31.1509 53 30.7901C52.9599 30.4293 52.8396 29.7477 51.8373 29.2666ZM45.8236 42.7374C45.1821 43.5392 41.7342 47.388 35.48 47.388C29.2257 47.388 25.7778 43.5392 25.1363 42.7374V35.1601L33.4353 39.1292C34.0367 39.4098 34.8385 39.5702 35.6403 39.5702C36.4822 39.5702 37.2841 39.4098 37.8855 39.0891L45.8236 35.2002V42.7374ZM51.2761 31.191L46.4651 33.5564C46.2646 33.5564 46.1042 33.6366 46.0241 33.797L37.3242 38.0066C36.4822 38.4476 34.8385 38.4476 33.9565 38.0066L23.252 32.8749L35.5601 31.4316C35.921 31.3915 36.1615 31.0707 36.1214 30.75C36.0813 30.3892 35.7606 30.1486 35.4399 30.1887L21.1672 31.8726L19.7239 31.191C19.3631 31.0306 19.2829 30.8302 19.2829 30.8302C19.2829 30.7901 19.3631 30.6297 19.7239 30.4694L33.9966 23.6137C34.4376 23.4132 35.0389 23.293 35.6403 23.293C36.2818 23.293 36.9233 23.4132 37.3242 23.6137L51.2761 30.4293C51.6369 30.5896 51.7171 30.75 51.7171 30.8302C51.7171 30.8302 51.5968 31.0306 51.2761 31.191Z" fill="#6857FF"></path></svg>