<svg xmlns="http://www.w3.org/2000/svg" width="70" height="70" viewBox="0 0 70 70" fill="none"><circle opacity="0.3" cx="35" cy="35" r="35" fill="#F19E1C"></circle><path d="M35.5 43.4166C28.0917 43.4166 21.0771 42.9821 19.9236 42.7968C19.7062 42.1668 19.4584 40.0712 19.4584 38.3124C19.4584 37.2537 19.4584 34.5018 19.7953 33.866C20.5565 33.5947 20.9444 33.0158 21.2871 32.501L21.449 32.2341C21.5948 32.151 22.1359 32.1364 22.4596 32.1262C23.3054 32.1014 24.2651 32.0737 24.529 31.241C24.7579 30.5162 27.2867 25.5812 27.8423 25.0912C28.4592 24.7966 33.0019 24.4583 35.5 24.4583C35.9025 24.4583 36.2292 24.1316 36.2292 23.7291C36.2292 23.3266 35.9025 23 35.5 23C34.6658 23 28.1836 23.1764 27.1 23.8356C26.1389 24.4204 23.6861 29.5042 23.2121 30.6125C23.0225 30.6519 22.6521 30.6621 22.4158 30.6694C21.6021 30.6927 20.7591 30.7175 20.3231 31.3271L20.0738 31.6916C19.75 32.1758 19.5794 32.4135 19.2527 32.5083C18.1808 32.8219 18 34.5514 18 38.3125C18 38.8404 18.0306 43.4838 19.1156 44.0598C19.9031 44.4798 29.0133 44.875 35.5 44.875C35.9025 44.875 36.2292 44.5483 36.2292 44.1458C36.2292 43.7433 35.9025 43.4166 35.5 43.4166Z" fill="#F19E1C"></path><path d="M35.5 28.8333C29.9992 28.8333 24.8439 29.6339 23.4833 30.382C23.1304 30.5759 23.0006 31.0193 23.1946 31.3722C23.3258 31.6128 23.5766 31.7499 23.8333 31.7499C23.9529 31.7499 24.0725 31.7207 24.1833 31.6594C25.0787 31.1694 29.6258 30.2915 35.5 30.2915C35.9025 30.2915 36.2292 29.9648 36.2292 29.5623C36.2292 29.1598 35.9025 28.8333 35.5 28.8333Z" fill="#F19E1C"></path><path d="M35.4999 39.0417C27.8422 39.0417 18.8778 38.3228 18.7874 38.3155C18.398 38.2863 18.0335 38.5823 18.0028 38.9834C17.9708 39.3845 18.2697 39.7373 18.6708 39.7695C18.7597 39.7753 27.7825 40.5001 35.5 40.5001C35.9025 40.5001 36.2292 40.1734 36.2292 39.7709C36.2292 39.3684 35.9024 39.0417 35.4999 39.0417Z" fill="#F19E1C"></path><path d="M24.5625 43.4166C24.16 43.4166 23.8333 43.7433 23.8333 44.1458V45.6041C23.8333 46.0066 23.5052 46.3333 23.1041 46.3333H20.1875C19.7864 46.3333 19.4583 46.0066 19.4583 45.6041V42.6874C19.4583 42.2849 19.1316 41.9583 18.7291 41.9583C18.3266 41.9583 18 42.285 18 42.6875V45.6042C18 46.8103 18.9814 47.7917 20.1875 47.7917H23.1042C24.3103 47.7917 25.2917 46.8103 25.2917 45.6042V44.1458C25.2917 43.7433 24.965 43.4166 24.5625 43.4166Z" fill="#F19E1C"></path><path d="M24.5624 28.8333H21.6457C21.2432 28.8333 20.9165 29.1599 20.9165 29.5624C20.9165 29.9649 21.2432 30.2916 21.6457 30.2916H24.5624C24.9649 30.2916 25.2916 29.9649 25.2916 29.5624C25.2916 29.1599 24.9649 28.8333 24.5624 28.8333Z" fill="#F19E1C"></path><path d="M51.7484 32.5083C51.4218 32.4135 51.2511 32.1758 50.9274 31.6916L50.678 31.3271C50.2419 30.7175 49.3991 30.6927 48.5838 30.6694C48.3476 30.6621 47.9771 30.6504 47.7876 30.6125C47.3136 29.5042 44.8607 24.4204 43.8996 23.8356C42.8161 23.1764 36.3339 23 35.4997 23C35.0972 23 34.7705 23.3267 34.7705 23.7292C34.7705 24.1317 35.0972 24.4583 35.4997 24.4583C37.9978 24.4583 42.5405 24.7966 43.1093 25.0563C43.7144 25.5813 46.2447 30.5163 46.4736 31.2411C46.7376 32.0737 47.6972 32.1015 48.543 32.1263C48.8653 32.135 49.4063 32.1511 49.4909 32.1729L49.7141 32.5011C50.0568 33.0159 50.4447 33.5948 51.2059 33.8661C51.5414 34.5019 51.5414 37.2537 51.5414 38.3125C51.5414 40.0523 51.2978 42.1231 51.0834 42.7779C49.6966 42.9953 42.7899 43.4167 35.4997 43.4167C35.0972 43.4167 34.7705 43.7434 34.7705 44.1459C34.7705 44.5484 35.0972 44.8751 35.4997 44.8751C41.9864 44.8751 51.0966 44.4799 51.8826 44.0599C52.9691 43.4838 52.9997 38.8404 52.9997 38.3125C52.9997 34.5514 52.8189 32.8219 51.7484 32.5083Z" fill="#F19E1C"></path><path d="M47.5164 30.382C46.1558 29.6339 41.0005 28.8333 35.4997 28.8333C35.0972 28.8333 34.7705 29.1599 34.7705 29.5624C34.7705 29.9649 35.0972 30.2916 35.4997 30.2916C41.3739 30.2916 45.9209 31.1696 46.8164 31.6596C46.9272 31.7208 47.0468 31.75 47.1664 31.75C47.4231 31.75 47.6739 31.6129 47.8051 31.3723C47.9991 31.0193 47.8693 30.5759 47.5164 30.382Z" fill="#F19E1C"></path><path d="M52.9968 38.9818C52.9661 38.5807 52.6161 38.2861 52.2122 38.3138C52.1218 38.3226 43.1574 39.0415 35.4997 39.0415C35.0972 39.0415 34.7705 39.3682 34.7705 39.7707C34.7705 40.1732 35.0972 40.4999 35.4997 40.4999C43.2172 40.4999 52.2399 39.7751 52.3289 39.7678C52.7299 39.7357 53.0289 39.3827 52.9968 38.9818Z" fill="#F19E1C"></path><path d="M52.2706 41.9583C51.8681 41.9583 51.5415 42.2849 51.5415 42.6874V45.6041C51.5415 46.0066 51.2133 46.3333 50.8123 46.3333H47.8956C47.4945 46.3333 47.1664 46.0066 47.1664 45.6041V44.1458C47.1664 43.7433 46.8397 43.4166 46.4372 43.4166C46.0347 43.4166 45.708 43.7433 45.708 44.1458V45.6041C45.708 46.8101 46.6894 47.7916 47.8955 47.7916H50.8123C52.0184 47.7916 52.9998 46.8101 52.9998 45.6041V42.6874C52.9998 42.2849 52.6731 41.9583 52.2706 41.9583Z" fill="#F19E1C"></path><path d="M49.3539 28.8333H46.4372C46.0347 28.8333 45.708 29.1599 45.708 29.5624C45.708 29.9649 46.0347 30.2916 46.4372 30.2916H49.3539C49.7564 30.2916 50.0831 29.9649 50.0831 29.5624C50.0831 29.1599 49.7564 28.8333 49.3539 28.8333Z" fill="#F19E1C"></path><path d="M27.4254 36.0024C27.0579 35.6057 26.5723 35.3957 26.021 35.3957C24.4096 35.3957 19.6146 34.6811 19.5664 34.6753C19.1713 34.6184 18.7964 34.8896 18.7381 35.2892C18.6783 35.6873 18.9539 36.0578 19.3506 36.1175C19.5519 36.1467 24.3002 36.8539 26.0211 36.8539C26.1669 36.8539 26.2631 36.8933 26.3536 36.9925C26.7356 37.4067 26.7867 38.515 26.7517 38.9875C26.724 39.3886 27.023 39.7386 27.424 39.7692C27.443 39.7706 27.462 39.7706 27.4809 39.7706C27.8571 39.7706 28.1765 39.4804 28.2057 39.0983C28.2231 38.8855 28.3427 36.994 27.4254 36.0024Z" fill="#F19E1C"></path><path d="M52.2725 35.2879C52.2127 34.8883 51.8423 34.6243 51.4442 34.6739C51.396 34.6813 46.6025 35.3958 44.9896 35.3958C44.4383 35.3958 43.9527 35.6058 43.5852 36.0039C42.6679 36.9956 42.7875 38.8871 42.805 39.1C42.8342 39.4806 43.1536 39.7708 43.5298 39.7708C43.5488 39.7708 43.5678 39.7694 43.5867 39.7679C43.9878 39.7373 44.2882 39.3873 44.259 38.9862C44.2226 38.5137 44.2736 37.4039 44.6572 36.9912C44.7476 36.8935 44.8439 36.8541 44.9897 36.8541C46.7105 36.8541 51.4573 36.1468 51.6601 36.1162C52.0581 36.0564 52.3322 35.686 52.2725 35.2879Z" fill="#F19E1C"></path><path d="M40.6041 36.125H30.3957C29.9932 36.125 29.6665 36.4517 29.6665 36.8542C29.6665 37.2567 29.9932 37.5833 30.3957 37.5833H40.604C41.0065 37.5833 41.3332 37.2566 41.3332 36.8541C41.3332 36.4516 41.0066 36.125 40.6041 36.125Z" fill="#F19E1C"></path></svg>