<svg xmlns="http://www.w3.org/2000/svg" width="16" height="16" viewBox="0 0 16 16" fill="none"><g clip-path="url(#clip0_1_3775)"><path d="M1.4632 13.0746C1.08708 13.0746 0.782227 13.3795 0.782227 13.7556V15.319C0.782227 15.695 1.08708 16 1.4632 16C1.83925 16 2.14416 15.695 2.14416 15.319V13.7556C2.14416 13.3795 1.8392 13.0746 1.4632 13.0746Z" fill="#3D72FC"></path><path d="M4.73175 9.80591C4.35569 9.80591 4.05078 10.1109 4.05078 10.4869V15.319C4.05078 15.695 4.35569 16 4.73175 16C5.10781 16 5.41272 15.695 5.41272 15.319V10.4869C5.41272 10.1109 5.10775 9.80591 4.73175 9.80591Z" fill="#3D72FC"></path><path d="M8.00031 6.53735C7.62425 6.53735 7.31934 6.84226 7.31934 7.21832V15.3191C7.31934 15.6952 7.62425 16 8.00031 16C8.37631 16 8.68128 15.6952 8.68128 15.3191V7.21832C8.68128 6.84226 8.37631 6.53735 8.00031 6.53735Z" fill="#3D72FC"></path><path d="M11.2689 3.26868C10.8928 3.26868 10.5879 3.57359 10.5879 3.94965V15.3191C10.5879 15.6952 10.8928 16 11.2689 16C11.6449 16 11.9498 15.6952 11.9498 15.3191V3.94965C11.9498 3.57359 11.6449 3.26868 11.2689 3.26868Z" fill="#3D72FC"></path><path d="M14.5374 0C14.1614 0 13.8564 0.304911 13.8564 0.680969V15.3191C13.8564 15.6951 14.1614 16 14.5374 16C14.9135 16 15.2184 15.6951 15.2184 15.3191V0.680969C15.2184 0.304911 14.9135 0 14.5374 0Z" fill="#3D72FC"></path></g><defs><clipPath id="clip0_1_3775"><rect width="16" height="16" fill="white"></rect></clipPath></defs></svg>