<svg xmlns="http://www.w3.org/2000/svg" width="27" height="26" viewBox="0 0 27 26" fill="none"><g filter="url(#filter0_d_1_3784)"><path d="M13.3125 0C8.34073 0 4.3125 4.02823 4.3125 9C4.3125 13.9718 8.34073 18 13.3125 18C18.2843 18 22.3125 13.9718 22.3125 9C22.3125 4.02823 18.2843 0 13.3125 0ZM13.3125 16.2581C9.30242 16.2581 6.05444 13.0101 6.05444 9C6.05444 4.98992 9.30242 1.74194 13.3125 1.74194C17.3226 1.74194 20.5706 4.98992 20.5706 9C20.5706 13.0101 17.3226 16.2581 13.3125 16.2581ZM15.5552 12.4694L12.4742 10.2302C12.3617 10.1468 12.2964 10.0161 12.2964 9.87823V3.91935C12.2964 3.67984 12.4923 3.48387 12.7319 3.48387H13.8931C14.1327 3.48387 14.3286 3.67984 14.3286 3.91935V9.06169L16.7528 10.8254C16.9488 10.9669 16.9887 11.2391 16.8472 11.4351L16.1649 12.375C16.0234 12.5673 15.7512 12.6109 15.5552 12.4694Z" fill="#3D72FC"></path></g><defs><filter id="filter0_d_1_3784" x="0.3125" y="0" width="26" height="26" filterUnits="userSpaceOnUse" color-interpolation-filters="sRGB"><feGaussianBlur stdDeviation="2"></feGaussianBlur></filter></defs></svg>