<svg xmlns="http://www.w3.org/2000/svg" width="20" height="20" viewBox="0 0 20 20" fill="none"><circle cx="10" cy="10" r="9.5" stroke="#3D72FC"></circle><g clip-path="url(#clip0_1_2712)"><path d="M14.5633 5.65067C14.1121 5.40769 13.6087 5.87629 13.3137 6.15399C12.6368 6.81351 12.0641 7.57716 11.4219 8.27139C10.7103 9.03505 10.0508 9.7987 9.32186 10.545C8.90532 10.9616 8.45407 11.4128 8.17638 11.9335C7.55157 11.326 7.01354 10.6665 6.31931 10.1285C5.81599 9.74667 4.98291 9.46897 5.00027 10.3888C5.03498 11.5864 6.09368 12.8707 6.87469 13.6864C7.20445 14.0335 7.63835 14.398 8.14167 14.4154C8.74912 14.4501 9.37393 13.7211 9.7384 13.322C10.3806 12.6277 10.9013 11.8467 11.4913 11.1351C12.255 10.1979 13.036 9.27803 13.7823 8.32346C14.2509 7.73336 15.7261 6.27545 14.5633 5.65067ZM5.76389 10.3194C5.74654 10.3194 5.72918 10.3194 5.69447 10.3367C5.62505 10.3194 5.57298 10.302 5.50356 10.2673C5.55562 10.2326 5.6424 10.25 5.76389 10.3194Z" fill="#3D72FC"></path></g><defs><clipPath id="clip0_1_2712"><rect width="10" height="10" fill="white" transform="translate(5 5)"></rect></clipPath></defs></svg>