<svg xmlns="http://www.w3.org/2000/svg" width="60" height="60" viewBox="0 0 60 60" fill="none"><circle opacity="0.3" cx="30" cy="30" r="30" fill="#F19E1C"></circle><path d="M41.2848 20.4176C40.917 20.0492 40.3203 20.0486 39.9525 20.416L28.6491 31.6896L24.5709 27.2602C24.2185 26.8777 23.6227 26.8529 23.2396 27.2053C22.8567 27.5576 22.8322 28.1537 23.1846 28.5366L27.9271 33.687C28.1007 33.8758 28.3438 33.9854 28.6001 33.9908C28.607 33.991 28.6136 33.991 28.6202 33.991C28.8693 33.991 29.1089 33.8921 29.2854 33.7162L41.2829 21.7502C41.6516 21.3827 41.6523 20.786 41.2848 20.4176Z" fill="#F2A630"></path><path d="M41.0578 28.5578C40.5374 28.5578 40.1156 28.9795 40.1156 29.5C40.1156 35.3537 35.3537 40.1156 29.5 40.1156C23.6467 40.1156 18.8844 35.3537 18.8844 29.5C18.8844 23.6467 23.6467 18.8844 29.5 18.8844C30.0204 18.8844 30.4422 18.4626 30.4422 17.9422C30.4422 17.4218 30.0204 17 29.5 17C22.6074 17 17 22.6074 17 29.5C17 36.3923 22.6074 42 29.5 42C36.3923 42 42 36.3923 42 29.5C42 28.9796 41.5782 28.5578 41.0578 28.5578Z" fill="#F2A630"></path></svg>