<svg xmlns="http://www.w3.org/2000/svg" xmlns:xlink="http://www.w3.org/1999/xlink" xmlns:svgjs="http://svgjs.com/svgjs" width="512" height="512" x="0" y="0" viewBox="0 0 24 24" style="enable-background:new 0 0 512 512" xml:space="preserve" class=""><g><path d="m8 22c-.526 0-1.041-.214-1.414-.586l-6-6c-.372-.373-.586-.888-.586-1.414s.214-1.041.586-1.414l9-9c.373-.372.888-.586 1.414-.586h6c.129 0 .251.015.371.045.91.139 1.629.983 1.629 1.955v6c0 .526-.214 1.041-.586 1.414l-9 9c-.373.372-.888.586-1.414.586zm3-18c-.263 0-.52.107-.707.293l-9 9c-.186.187-.293.444-.293.707s.107.52.293.707l6 6c.373.373 1.04.373 1.413 0l9-9c.187-.187.294-.444.294-.707v-6c0-.483-.355-.903-.827-.976-.086-.02-.125-.024-.173-.024z" fill="#424a61" data-original="#000000" class=""></path><path d="m21.93 24h-8.86c-.545 0-1.076-.211-1.458-.581-.389-.376-.612-.894-.612-1.419v-3.38c0-.133.053-.26.146-.354l6.56-6.56c.187-.186.294-.443.294-.706v-6c0-.483-.355-.903-.827-.976-.241-.038-.419-.243-.423-.486s.168-.455.408-.5c.65-.12 1.326.082 1.8.543l4.428 4.248c.391.378.614.896.614 1.421v12.75c0 .525-.223 1.043-.612 1.419-.382.37-.913.581-1.458.581zm-9.93-5.173v3.173c0 .256.112.512.308.701.196.19.474.299.762.299h8.86c.288 0 .565-.109.762-.299.196-.189.308-.445.308-.701v-12.75c0-.256-.112-.512-.308-.701l-3.692-3.542v5.993c0 .526-.214 1.041-.586 1.414z" fill="#424a61" data-original="#000000" class=""></path><path d="m15.5 8c-.827 0-1.5-.673-1.5-1.5s.673-1.5 1.5-1.5 1.5.673 1.5 1.5-.673 1.5-1.5 1.5zm0-2c-.276 0-.5.224-.5.5s.224.5.5.5.5-.224.5-.5-.224-.5-.5-.5z" fill="#424a61" data-original="#000000" class=""></path><path d="m21.5 7c-.276 0-.5-.224-.5-.5v-3c0-1.378-1.122-2.5-2.5-2.5s-2.5 1.122-2.5 2.5v2c0 .276-.224.5-.5.5s-.5-.224-.5-.5v-2c0-1.93 1.57-3.5 3.5-3.5s3.5 1.57 3.5 3.5v3c0 .276-.224.5-.5.5z" fill="#424a61" data-original="#000000" class=""></path></g></svg>